<?xml version="1.0" encoding="UTF-8"?>
<svg version="1.1" xmlns="http://www.w3.org/2000/svg" width="692" height="619">
<path d="M0 0 C228.36 0 456.72 0 692 0 C692 204.27 692 408.54 692 619 C463.64 619 235.28 619 0 619 C0 414.73 0 210.46 0 0 Z " fill="#000000" transform="translate(0,0)"/>
<path d="M0 0 C2.16369704 -0.00217311 4.32687239 -0.02031682 6.49047852 -0.03930664 C14.01760122 -0.06888851 21.17843894 0.23053248 28.50024414 2.18530273 C28.50024414 2.84530273 28.50024414 3.50530273 28.50024414 4.18530273 C29.16024414 4.30905273 29.82024414 4.43280273 30.50024414 4.56030273 C34.19722997 5.33050811 37.84030356 6.25480937 41.50024414 7.18530273 C41.50024414 7.84530273 41.50024414 8.50530273 41.50024414 9.18530273 C42.49024414 9.18530273 43.48024414 9.18530273 44.50024414 9.18530273 C44.50024414 9.84530273 44.50024414 10.50530273 44.50024414 11.18530273 C45.24274414 11.41217773 45.98524414 11.63905273 46.75024414 11.87280273 C50.07180514 13.45809321 51.27211465 15.28198248 53.50024414 18.18530273 C54.56385154 19.10446962 55.64802066 20.0003167 56.75024414 20.87280273 C57.65774414 21.63592773 58.56524414 22.39905273 59.50024414 23.18530273 C59.50024414 23.84530273 59.50024414 24.50530273 59.50024414 25.18530273 C60.16024414 25.18530273 60.82024414 25.18530273 61.50024414 25.18530273 C61.50024414 25.84530273 61.50024414 26.50530273 61.50024414 27.18530273 C62.16024414 27.18530273 62.82024414 27.18530273 63.50024414 27.18530273 C63.50024414 27.84530273 63.50024414 28.50530273 63.50024414 29.18530273 C64.16024414 29.18530273 64.82024414 29.18530273 65.50024414 29.18530273 C65.50024414 29.84530273 65.50024414 30.50530273 65.50024414 31.18530273 C66.16024414 31.18530273 66.82024414 31.18530273 67.50024414 31.18530273 C67.50024414 31.84530273 67.50024414 32.50530273 67.50024414 33.18530273 C68.11899414 33.30905273 68.73774414 33.43280273 69.37524414 33.56030273 C71.50024414 34.18530273 71.50024414 34.18530273 73.50024414 36.18530273 C73.50024414 40.18530273 73.50024414 40.18530273 71.48071289 42.46264648 C70.49129746 43.3746385 69.49728255 44.28165084 68.50024414 45.18530273 C67.26236908 46.39002345 66.02962863 47.60003407 64.80102539 48.81420898 C64.1494043 49.45680664 63.4977832 50.0994043 62.82641602 50.76147461 C62.1619043 51.41696289 61.49739258 52.07245117 60.81274414 52.74780273 C60.13663086 53.4071582 59.46051758 54.06651367 58.76391602 54.74584961 C58.11616211 55.3871582 57.4684082 56.0284668 56.80102539 56.68920898 C56.21490479 57.26485596 55.62878418 57.84050293 55.02490234 58.43359375 C53.44330718 60.2507187 52.47717956 61.99253196 51.50024414 64.18530273 C49.25024414 64.49780273 49.25024414 64.49780273 46.50024414 64.18530273 C44.37524414 61.74780273 44.37524414 61.74780273 42.50024414 59.18530273 C41.01524414 58.69030273 41.01524414 58.69030273 39.50024414 58.18530273 C34.91930032 53.15743757 34.91930032 53.15743757 33.63305664 50.17358398 C30.08113544 43.93934989 19.89766961 40.81226488 13.50024414 38.18530273 C13.50024414 37.52530273 13.50024414 36.86530273 13.50024414 36.18530273 C9.52077084 36.32344496 5.54175999 36.47209948 1.56274414 36.62280273 C0.42643555 36.66211914 -0.70987305 36.70143555 -1.88061523 36.74194336 C-2.96020508 36.78383789 -4.03979492 36.82573242 -5.15209961 36.86889648 C-6.65244751 36.92388306 -6.65244751 36.92388306 -8.18310547 36.97998047 C-10.46044774 36.93202114 -10.46044774 36.93202114 -11.49975586 38.18530273 C-13.83273019 38.22623211 -16.16680811 38.22771997 -18.49975586 38.18530273 C-18.49975586 38.84530273 -18.49975586 39.50530273 -18.49975586 40.18530273 C-19.07983398 40.49983398 -19.65991211 40.81436523 -20.25756836 41.13842773 C-29.33676974 46.11251166 -35.53018944 49.98114691 -40.49975586 59.18530273 C-41.01082886 60.01831909 -41.01082886 60.01831909 -41.53222656 60.86816406 C-45.00110812 66.91188553 -45.356064 72.82850286 -45.74975586 79.68530273 C-45.82709961 80.79389648 -45.90444336 81.90249023 -45.98413086 83.04467773 C-46.17122797 85.75758582 -46.34269167 88.47051848 -46.49975586 91.18530273 C-45.83975586 91.18530273 -45.17975586 91.18530273 -44.49975586 91.18530273 C-44.15944336 93.10342773 -44.15944336 93.10342773 -43.81225586 95.06030273 C-42.45960193 101.20076769 -40.00177631 107.68328229 -35.49975586 112.18530273 C-34.15048876 115.10871479 -33.49975586 116.93737589 -33.49975586 120.18530273 C-32.96350586 120.28842773 -32.42725586 120.39155273 -31.87475586 120.49780273 C-28.87473542 121.3662297 -26.26180236 122.7415057 -23.49975586 124.18530273 C-23.49975586 124.84530273 -23.49975586 125.50530273 -23.49975586 126.18530273 C-5.44635612 131.08113995 9.51089607 132.14332262 26.50024414 123.18530273 C27.16024414 123.18530273 27.82024414 123.18530273 28.50024414 123.18530273 C28.50024414 122.52530273 28.50024414 121.86530273 28.50024414 121.18530273 C30.18199797 119.71266365 31.92235661 118.30656808 33.68774414 116.93530273 C36.94975666 114.3399483 39.97906133 111.90329697 42.56274414 108.62280273 C43.20211914 107.81842773 43.84149414 107.01405273 44.50024414 106.18530273 C45.16024414 106.18530273 45.82024414 106.18530273 46.50024414 106.18530273 C46.54149414 105.44280273 46.58274414 104.70030273 46.62524414 103.93530273 C47.86769395 100.03046047 50.04125878 99.29912712 53.50024414 97.18530273 C55.30270106 95.73040478 57.03801461 94.21459792 58.77758789 92.68530273 C60.33541442 91.32882793 61.94654139 90.03416819 63.56274414 88.74780273 C65.79579722 86.79982026 67.51435785 85.06242658 69.37524414 82.81030273 C72.17332064 79.43204764 75.28979228 76.64932999 78.61743164 73.80249023 C82.25315727 70.67968856 85.27939189 67.57589295 87.87524414 63.56030273 C90.4246762 59.81683288 93.33116297 58.88381729 97.50024414 57.18530273 C99.27172786 54.70597077 99.27172786 54.70597077 100.50024414 52.18530273 C101.49024414 51.52530273 102.48024414 50.86530273 103.50024414 50.18530273 C103.84055664 48.85499023 103.84055664 48.85499023 104.18774414 47.49780273 C105.81869992 43.381581 108.02512944 41.68544183 111.39868164 38.93139648 C113.36304673 37.29929389 115.11285655 35.59266659 116.87524414 33.74780273 C119.50024414 31.18530273 119.50024414 31.18530273 121.50024414 31.18530273 C121.50024414 30.19530273 121.50024414 29.20530273 121.50024414 28.18530273 C122.16024414 28.18530273 122.82024414 28.18530273 123.50024414 28.18530273 C123.56211914 27.58717773 123.62399414 26.98905273 123.68774414 26.37280273 C124.83160221 23.29318485 126.67719866 22.76095602 129.50024414 21.18530273 C130.20149414 20.46342773 130.90274414 19.74155273 131.62524414 18.99780273 C133.50024414 17.18530273 133.50024414 17.18530273 136.50024414 17.18530273 C136.50024414 16.52530273 136.50024414 15.86530273 136.50024414 15.18530273 C137.57274414 14.73155273 138.64524414 14.27780273 139.75024414 13.81030273 C141.0007045 13.26969967 142.25073482 12.72810033 143.50024414 12.18530273 C144.64493164 11.69030273 144.64493164 11.69030273 145.81274414 11.18530273 C147.83587017 10.15096688 147.83587017 10.15096688 149.50024414 7.18530273 C155.69430712 4.65136788 161.86577864 3.80976695 168.50024414 4.18530273 C168.50024414 3.52530273 168.50024414 2.86530273 168.50024414 2.18530273 C175.30265931 0.59114271 181.70698897 -0.13810301 188.68774414 -0.06469727 C189.59032959 -0.06083008 190.49291504 -0.05696289 191.42285156 -0.05297852 C199.2352807 0.04663981 206.80291404 0.86103089 214.50024414 2.18530273 C214.50024414 2.84530273 214.50024414 3.50530273 214.50024414 4.18530273 C215.98524414 4.58749023 215.98524414 4.58749023 217.50024414 4.99780273 C221.59637198 6.16214173 225.52868047 7.65241851 229.50024414 9.18530273 C229.50024414 9.84530273 229.50024414 10.50530273 229.50024414 11.18530273 C230.33555664 11.58749023 230.33555664 11.58749023 231.18774414 11.99780273 C235.85228528 14.39310764 239.6906649 17.07389549 243.56274414 20.62280273 C244.81764648 21.76555664 244.81764648 21.76555664 246.09790039 22.93139648 C247.28706055 24.04708008 247.28706055 24.04708008 248.50024414 25.18530273 C249.64299805 26.22364258 249.64299805 26.22364258 250.80883789 27.28295898 C252.50024414 29.18530273 252.50024414 29.18530273 252.50024414 32.18530273 C253.16024414 32.18530273 253.82024414 32.18530273 254.50024414 32.18530273 C257.68634534 36.09914849 260.32723413 40.4319424 262.18774414 45.12280273 C263.27490868 48.42960583 263.27490868 48.42960583 266.50024414 50.18530273 C275.91322987 66.09693342 273.31045265 88.72186413 270.50024414 106.18530273 C269.84024414 106.18530273 269.18024414 106.18530273 268.50024414 106.18530273 C268.58274414 106.96905273 268.66524414 107.75280273 268.75024414 108.56030273 C268.40532903 113.5615718 266.51378333 117.63686154 264.50024414 122.18530273 C263.84024414 122.18530273 263.18024414 122.18530273 262.50024414 122.18530273 C262.39583008 122.90588867 262.29141602 123.62647461 262.18383789 124.36889648 C261.43165494 127.46789026 260.26209864 129.55958181 258.56274414 132.24780273 C256.36265109 135.74505849 256.36265109 135.74505849 254.45727539 139.40405273 C253.08350423 141.96094926 250.96933794 142.71560404 248.50024414 144.18530273 C247.92274414 144.94842773 247.34524414 145.71155273 246.75024414 146.49780273 C244.11331792 149.64746461 241.27290515 151.48803208 237.81665039 153.65795898 C235.41959375 155.16896182 235.41959375 155.16896182 233.14477539 157.20483398 C224.18978286 163.91115778 211.32665179 165.15641009 200.50024414 166.18530273 C200.50024414 166.84530273 200.50024414 167.50530273 200.50024414 168.18530273 C196.04196725 168.24397615 191.58379141 168.27912408 187.12524414 168.31030273 C185.87356445 168.32706055 184.62188477 168.34381836 183.33227539 168.36108398 C176.12998414 168.39879232 169.48610521 167.99343194 162.50024414 166.18530273 C162.50024414 165.52530273 162.50024414 164.86530273 162.50024414 164.18530273 C161.63399414 164.24717773 160.76774414 164.30905273 159.87524414 164.37280273 C153.11053685 163.99698566 148.27835779 159.69041756 142.94165039 155.87280273 C140.99000071 154.52382248 139.0906931 153.35480171 137.00024414 152.24780273 C130.26291411 148.52622996 124.28380428 143.92374701 120.50024414 137.18530273 C117.31615519 133.61074917 117.31615519 133.61074917 113.25024414 131.24780273 C111.50024414 130.18530273 111.50024414 130.18530273 110.25024414 127.56030273 C110.60199734 122.81163455 112.89035361 121.19715364 116.30493164 118.06811523 C119.01457582 115.74418553 121.74281252 113.45252429 124.50024414 111.18530273 C125.32524414 110.36030273 126.15024414 109.53530273 127.00024414 108.68530273 C129.75822096 105.92732592 132.33570388 103.47454463 135.50024414 101.18530273 C139.38506953 101.40684064 141.17763362 103.58037431 143.75024414 106.31030273 C147.2726024 109.96011474 150.88644171 113.35179872 154.75024414 116.63452148 C156.50024414 118.18530273 156.50024414 118.18530273 158.75024414 120.74780273 C162.43286224 124.0119415 166.52435751 125.85524906 170.95336914 127.95092773 C173.50024414 129.18530273 173.50024414 129.18530273 174.50024414 130.18530273 C178.45086018 130.4702652 182.41560596 130.41730438 186.37524414 130.43530273 C187.47094727 130.45592773 188.56665039 130.47655273 189.69555664 130.49780273 C196.20547031 130.52865541 201.84665661 129.87929066 208.06713867 127.93041992 C210.50024414 127.18530273 210.50024414 127.18530273 213.23022461 126.7175293 C215.68830904 126.42013824 215.68830904 126.42013824 216.81274414 124.12280273 C217.15305664 123.16374023 217.15305664 123.16374023 217.50024414 122.18530273 C218.16024414 122.18530273 218.82024414 122.18530273 219.50024414 122.18530273 C219.84055664 121.13342773 219.84055664 121.13342773 220.18774414 120.06030273 C221.78494891 116.56166372 224.00812543 114.10290513 226.50024414 111.18530273 C227.05711914 110.23655273 227.61399414 109.28780273 228.18774414 108.31030273 C228.62086914 107.60905273 229.05399414 106.90780273 229.50024414 106.18530273 C230.16024414 106.18530273 230.82024414 106.18530273 231.50024414 106.18530273 C231.62399414 105.19530273 231.74774414 104.20530273 231.87524414 103.18530273 C232.24656391 100.51006716 232.78631761 98.16548358 233.52368164 95.53686523 C234.71242846 90.85773237 234.79602409 86.36719767 234.75024414 81.56030273 C234.75797852 80.74045898 234.76571289 79.92061523 234.77368164 79.07592773 C234.75372359 72.86897512 233.77003016 67.86622755 230.37524414 62.56030273 C228.50024414 59.18530273 228.50024414 59.18530273 228.50024414 55.18530273 C227.6165918 54.80631836 227.6165918 54.80631836 226.71508789 54.41967773 C224.24730145 53.04433291 222.91143656 51.55985794 221.06274414 49.43530273 C215.07004189 43.23945803 205.89355962 38.58375489 197.16943359 38.04003906 C194.38374816 38.01529279 191.59854775 37.99964398 188.81274414 37.99780273 C187.8569043 37.98555664 186.90106445 37.97331055 185.91625977 37.96069336 C177.26187256 37.94299523 169.94646316 38.68893774 162.62524414 43.62280273 C161.72032227 44.21963867 160.81540039 44.81647461 159.88305664 45.43139648 C157.52171486 47.07262854 157.52171486 47.07262854 155.80493164 48.90795898 C154.50024414 50.18530273 154.50024414 50.18530273 152.50024414 50.18530273 C152.21149414 50.78342773 151.92274414 51.38155273 151.62524414 51.99780273 C150.50024414 54.18530273 150.50024414 54.18530273 148.50024414 57.18530273 C147.84024414 57.18530273 147.18024414 57.18530273 146.50024414 57.18530273 C146.50024414 57.84530273 146.50024414 58.50530273 146.50024414 59.18530273 C144.92602539 60.66577148 144.92602539 60.66577148 142.81274414 62.37280273 C139.50362767 65.17103807 137.16247095 67.89404957 134.78930664 71.48608398 C132.8754112 74.00894616 130.52634411 75.87201761 128.05102539 77.82592773 C126.23900848 79.29543666 126.23900848 79.29543666 124.50024414 82.18530273 C123.51024414 82.18530273 122.52024414 82.18530273 121.50024414 82.18530273 C121.15993164 83.26811523 121.15993164 83.26811523 120.81274414 84.37280273 C119.24402417 87.73434553 117.14383192 89.6061927 114.50024414 92.18530273 C113.98461914 93.07217773 113.46899414 93.95905273 112.93774414 94.87280273 C111.3259176 97.46574108 110.19010015 97.9300366 107.50024414 99.18530273 C107.17024414 100.17530273 106.84024414 101.16530273 106.50024414 102.18530273 C104.89868164 103.57983398 104.89868164 103.57983398 102.87524414 104.99780273 C94.00475652 110.92931934 94.00475652 110.92931934 89.50024414 120.18530273 C88.18024414 120.18530273 86.86024414 120.18530273 85.50024414 120.18530273 C85.50024414 120.84530273 85.50024414 121.50530273 85.50024414 122.18530273 C82.84795602 123.26055468 80.2165596 124.27986425 77.50024414 125.18530273 C77.25274414 126.05155273 77.00524414 126.91780273 76.75024414 127.81030273 C75.03691788 132.43628365 72.07102963 134.89397003 68.50024414 138.18530273 C67.65461914 139.03092773 66.80899414 139.87655273 65.93774414 140.74780273 C65.13336914 141.55217773 64.32899414 142.35655273 63.50024414 143.18530273 C63.0168457 143.6919043 62.53344727 144.19850586 62.03540039 144.72045898 C58.49220987 148.38987004 55.12331275 150.93718885 50.48071289 153.14624023 C49.40756836 153.66057617 49.40756836 153.66057617 48.31274414 154.18530273 C47.63856445 154.49467773 46.96438477 154.80405273 46.26977539 155.12280273 C44.17587341 156.20841642 44.17587341 156.20841642 42.50024414 159.18530273 C39.93383789 160.31811523 39.93383789 160.31811523 36.93774414 161.31030273 C33.44185617 162.26903069 33.44185617 162.26903069 30.50024414 164.18530273 C24.46426729 165.79724977 18.72738611 166.41593762 12.50024414 166.18530273 C12.50024414 166.84530273 12.50024414 167.50530273 12.50024414 168.18530273 C8.89614875 168.24436392 5.29218105 168.27924912 1.68774414 168.31030273 C0.68291992 168.32706055 -0.3219043 168.34381836 -1.35717773 168.36108398 C-8.2892113 168.40566298 -14.7291617 167.6679634 -21.49975586 166.18530273 C-21.49975586 165.52530273 -21.49975586 164.86530273 -21.49975586 164.18530273 C-22.73725586 163.99967773 -22.73725586 163.99967773 -23.99975586 163.81030273 C-27.92225653 163.10985619 -31.66898137 162.28908521 -35.49975586 161.18530273 C-35.82975586 160.52530273 -36.15975586 159.86530273 -36.49975586 159.18530273 C-37.48975586 158.85530273 -38.47975586 158.52530273 -39.49975586 158.18530273 C-39.49975586 157.52530273 -39.49975586 156.86530273 -39.49975586 156.18530273 C-40.60963867 155.76571289 -40.60963867 155.76571289 -41.74194336 155.33764648 C-54.54753984 149.98686609 -64.24592703 138.67203916 -71.49975586 127.18530273 C-72.06823242 126.31518555 -72.63670898 125.44506836 -73.22241211 124.54858398 C-76.0705987 120.0440052 -77.94673149 116.5772903 -78.49975586 111.18530273 C-79.15975586 110.85530273 -79.81975586 110.52530273 -80.49975586 110.18530273 C-81.17205685 107.43750371 -81.69197317 104.78653928 -82.12475586 101.99780273 C-82.25591797 101.16007324 -82.38708008 100.32234375 -82.5222168 99.45922852 C-84.36685624 86.44374009 -84.13747529 73.20781366 -82.49975586 60.18530273 C-81.01475586 59.69030273 -81.01475586 59.69030273 -79.49975586 59.18530273 C-79.39663086 58.19530273 -79.29350586 57.20530273 -79.18725586 56.18530273 C-78.58309899 51.92168139 -77.1250184 48.15125439 -75.49975586 44.18530273 C-75.21358398 43.35901367 -74.92741211 42.53272461 -74.63256836 41.68139648 C-73.37682702 38.9144354 -72.02431564 37.43710214 -69.81225586 35.37280273 C-67.0287303 32.70483871 -64.4260586 30.00519829 -61.93725586 27.06030273 C-58.81044852 23.43978898 -55.5278661 19.81753319 -51.49975586 17.18530273 C-50.50975586 17.18530273 -49.51975586 17.18530273 -48.49975586 17.18530273 C-48.22131836 16.34999023 -48.22131836 16.34999023 -47.93725586 15.49780273 C-45.16089341 11.03148054 -41.11986378 8.56823733 -36.06225586 7.37280273 C-35.21663086 7.31092773 -34.37100586 7.24905273 -33.49975586 7.18530273 C-33.49975586 6.52530273 -33.49975586 5.86530273 -33.49975586 5.18530273 C-31.10443653 4.53751197 -28.70853838 3.89201264 -26.31225586 3.24780273 C-25.6387207 3.06540039 -24.96518555 2.88299805 -24.27124023 2.69506836 C-16.02522629 0.48272316 -8.50398728 -0.00095518 0 0 Z " fill="#FBFBFB" transform="translate(243.499755859375,151.814697265625)"/>
<path d="M0 0 C2.88316933 2.37265874 4.93928885 4.9059117 7 8 C7.79470703 9.00546875 7.79470703 9.00546875 8.60546875 10.03125 C15.47160696 19.72462159 13.16223863 36.66899123 13.16796875 47.95703125 C13.17119362 49.47336354 13.17455854 50.98969553 13.17805481 52.50602722 C13.18400005 55.66686727 13.18589945 58.82768016 13.18530273 61.98852539 C13.18520127 65.99548197 13.1988578 70.00226074 13.21607494 74.0091753 C13.2273103 77.13657904 13.22921846 80.26394131 13.22869301 83.39136314 C13.22985567 84.8666209 13.23417815 86.34188035 13.24202538 87.81711769 C13.3800548 116.43744292 13.3800548 116.43744292 7.5 122.5625 C7.005 123.036875 6.51 123.51125 6 124 C5.34 124.99 4.68 125.98 4 127 C3.34 127 2.68 127 2 127 C2 127.66 2 128.32 2 129 C0.54195831 129.81302325 -0.91644315 130.62540131 -2.375 131.4375 C-3.18710937 131.88996094 -3.99921875 132.34242188 -4.8359375 132.80859375 C-14.37865971 138.06225851 -28.01255033 136.86744142 -38.22265625 134.12109375 C-43.72567818 131.89976141 -46.79049978 127.81425033 -50 123 C-50 121.68 -50 120.36 -50 119 C-50.66 119 -51.32 119 -52 119 C-52.12375 118.195625 -52.2475 117.39125 -52.375 116.5625 C-52.58125 115.716875 -52.7875 114.87125 -53 114 C-53.66 113.67 -54.32 113.34 -55 113 C-56.37370956 108.93246283 -56.15523978 104.74806256 -56.16113281 100.50292969 C-56.16609772 99.64712814 -56.17106262 98.7913266 -56.17617798 97.90959167 C-56.19077389 95.08034457 -56.19759778 92.25115356 -56.203125 89.421875 C-56.20887913 87.45135497 -56.21463683 85.48083495 -56.22039795 83.51031494 C-56.23090101 79.37780497 -56.23674804 75.24531441 -56.24023438 71.11279297 C-56.24571373 65.82917538 -56.26973282 60.54581618 -56.29820633 55.26227951 C-56.3168731 51.19066632 -56.32204049 47.11911482 -56.32357025 43.04746246 C-56.32658883 41.10029947 -56.33459039 39.15313736 -56.34775543 37.20601654 C-56.36489836 34.47536333 -56.36291549 31.74533431 -56.35644531 29.01464844 C-56.3656601 28.2174791 -56.37487488 27.42030975 -56.3843689 26.59898376 C-56.31030637 16.57074357 -51.89564662 8.20855831 -45 1 C-41.7772473 -0.92302185 -38.62532768 -2.07517151 -35 -3 C-34.10667969 -3.28037109 -34.10667969 -3.28037109 -33.1953125 -3.56640625 C-22.51472734 -5.67591684 -9.83277425 -4.6515095 0 0 Z " fill="#F8F8F8" transform="translate(508,346)"/>
<path d="M0 0 C9.57 0 19.14 0 29 0 C31.08440402 2.08440402 31.0184543 6.09090504 31.5234375 8.953125 C31.74370102 10.1699295 31.74370102 10.1699295 31.96841431 11.41131592 C32.44101578 14.02355295 32.90850498 16.63666605 33.375 19.25 C35.33928985 30.23593334 37.36529135 41.15152319 40 52 C40.01030746 51.36328873 40.02061493 50.72657745 40.03123474 50.0705719 C40.13906331 43.46873202 40.25367961 36.86703522 40.37231445 30.26538086 C40.41573943 27.79861431 40.45740872 25.33181622 40.49731445 22.86499023 C40.55483445 19.32786534 40.61858075 15.79090034 40.68359375 12.25390625 C40.70030624 11.14350479 40.71701874 10.03310333 40.73423767 8.88905334 C40.75418289 7.86807053 40.77412811 6.84708771 40.79467773 5.79516602 C40.81022202 4.89137711 40.8257663 3.9875882 40.84178162 3.05641174 C41 1 41 1 42 0 C50.91 0 59.82 0 69 0 C69 45.54 69 91.08 69 138 C60.09 138 51.18 138 42 138 C38.62911422 130.13459984 38.62911422 130.13459984 38.12109375 126.51953125 C38.00443359 125.74802734 37.88777344 124.97652344 37.76757812 124.18164062 C37.65865234 123.39982422 37.54972656 122.61800781 37.4375 121.8125 C37.21321088 120.23478623 36.98293853 118.65790907 36.74609375 117.08203125 C36.64997803 116.39343018 36.5538623 115.7048291 36.45483398 114.99536133 C36.07624402 112.95476103 36.07624402 112.95476103 35.02026367 111.09082031 C33.78272391 108.55473738 33.3827068 106.24870544 32.9296875 103.46484375 C32.75566406 102.40845703 32.58164062 101.35207031 32.40234375 100.26367188 C32.22832031 99.16603516 32.05429687 98.06839844 31.875 96.9375 C31.69324219 95.83599609 31.51148438 94.73449219 31.32421875 93.59960938 C30 85.45018797 30 85.45018797 30 82 C29.34 82 28.68 82 28 82 C28.00222061 82.68682358 28.00444122 83.37364716 28.00672913 84.08128357 C28.02877895 91.20205162 28.04390533 98.32281004 28.05493164 105.44360352 C28.05997383 108.10441481 28.06680736 110.76522332 28.07543945 113.42602539 C28.08751009 117.24105516 28.09322929 121.05604844 28.09765625 124.87109375 C28.10281754 126.06899033 28.10797882 127.2668869 28.11329651 128.50108337 C28.11340981 130.15268211 28.11340981 130.15268211 28.11352539 131.83764648 C28.115746 132.81249496 28.11796661 133.78734344 28.12025452 134.79173279 C28 137 28 137 27 138 C18.09 138 9.18 138 0 138 C0 92.46 0 46.92 0 0 Z " fill="#FDFDFD" transform="translate(373,343)"/>
<path d="M0 0 C9.24 0 18.48 0 28 0 C33.13163286 7.69744929 33.60773824 18.25169835 34.82202148 27.26538086 C35.84518379 34.65621509 37.41953316 41.62448808 39 49 C39.33 32.83 39.66 16.66 40 0 C49.24 0 58.48 0 68 0 C68 45.54 68 91.08 68 138 C58.76 138 49.52 138 40 138 C36.74251219 121.28767123 36.74251219 121.28767123 36.2109375 113.8203125 C36.0936872 111.90297126 36.0936872 111.90297126 35 110 C34.93049459 108.45976004 34.91547643 106.91665012 34.9375 105.375 C34.94652344 104.55773437 34.95554688 103.74046875 34.96484375 102.8984375 C34.97644531 102.27195312 34.98804688 101.64546875 35 101 C34.34 101 33.68 101 33 101 C31.80911014 95.61972975 30.7080481 90.54708616 31 85 C30.34 85 29.68 85 29 85 C29 81.7 29 78.4 29 75 C28.34 75 27.68 75 27 75 C27 95.79 27 116.58 27 138 C18.09 138 9.18 138 0 138 C0 92.46 0 46.92 0 0 Z " fill="#FBFBFB" transform="translate(193,343)"/>
<path d="M0 0 C18.81 0 37.62 0 57 0 C57 8.91 57 17.82 57 27 C47.76 27 38.52 27 29 27 C29 34.59 29 42.18 29 50 C30.79308594 49.98839844 32.58617187 49.97679687 34.43359375 49.96484375 C36.76822813 49.95546771 39.10286363 49.94636731 41.4375 49.9375 C42.62150391 49.92912109 43.80550781 49.92074219 45.02539062 49.91210938 C46.15009766 49.90888672 47.27480469 49.90566406 48.43359375 49.90234375 C49.47572021 49.89710693 50.51784668 49.89187012 51.59155273 49.88647461 C54 50 54 50 55 51 C55.08737645 52.85369611 55.10698153 54.71067541 55.09765625 56.56640625 C55.09515869 57.57904541 55.09266113 58.59168457 55.09008789 59.63500977 C55.08098389 60.93108154 55.07187988 62.22715332 55.0625 63.5625 C55.041875 67.666875 55.02125 71.77125 55 76 C46.42 76 37.84 76 29 76 C29 96.46 29 116.92 29 138 C19.43 138 9.86 138 0 138 C0 92.46 0 46.92 0 0 Z " fill="#FCFCFC" transform="translate(272,343)"/>
<path d="M0 0 C9.57 0 19.14 0 29 0 C29 45.54 29 91.08 29 138 C19.76 138 10.52 138 1 138 C0 137 0 137 -0.12304783 134.7373724 C-0.12212604 133.72800908 -0.12120424 132.71864576 -0.12025452 131.67869568 C-0.12162918 130.52458191 -0.12300385 129.37046814 -0.12442017 128.18138123 C-0.12082489 126.90392532 -0.11722961 125.62646942 -0.11352539 124.31030273 C-0.11324352 122.96041872 -0.11340125 121.61053456 -0.1139679 120.26065063 C-0.11425587 116.58519392 -0.10835916 112.90976957 -0.10139394 109.2343204 C-0.09516038 105.39726851 -0.0945566 101.56021596 -0.09336853 97.72315979 C-0.09025522 90.45228782 -0.08204183 83.18143081 -0.07201904 75.91056544 C-0.0608579 67.63500648 -0.05534745 59.35944682 -0.05032361 51.08388221 C-0.03985922 34.05591133 -0.02151374 17.02796106 0 0 Z " fill="#EAEAEA" transform="translate(154,343)"/>
<path d="M0 0 C8.91 0 17.82 0 27 0 C27 45.54 27 91.08 27 138 C18.09 138 9.18 138 0 138 C0 92.46 0 46.92 0 0 Z " fill="#F6F6F6" transform="translate(336,343)"/>
<path d="M0 0 C3 0.4375 3 0.4375 4.8125 1.75 C7.49771827 5.56583648 7.1355273 9.57538272 7.11352539 14.0300293 C7.11367142 14.80099945 7.11381744 15.5719696 7.1139679 16.36630249 C7.11327119 18.91480319 7.1054901 21.46323082 7.09765625 24.01171875 C7.09579121 25.77863017 7.09436771 27.5455421 7.09336853 29.31245422 C7.08955012 33.96328153 7.07972558 38.61407761 7.06866455 43.26489258 C7.05843591 48.01057513 7.05386779 52.75626273 7.04882812 57.50195312 C7.03810273 66.8138158 7.02103439 76.1256553 7 85.4375 C3.20960634 87.56749997 0.34263862 87.60452456 -4 87.4375 C-6.44854678 78.84778588 -6.30956614 70.36069509 -6.30078125 61.51171875 C-6.30467399 59.87506503 -6.30900985 58.2384123 -6.31376648 56.60176086 C-6.32119219 53.18849391 -6.32096189 49.77533051 -6.31567383 46.36206055 C-6.30985208 41.9895178 -6.32689253 37.61739493 -6.3500185 33.24492168 C-6.3647407 29.87259957 -6.36563017 26.50037933 -6.36250877 23.12803078 C-6.3630217 21.51528904 -6.36825412 19.90254156 -6.37832069 18.28983116 C-6.39065299 16.04018942 -6.383916 13.79137642 -6.37231445 11.54174805 C-6.37294388 10.26317429 -6.3735733 8.98460052 -6.3742218 7.6672821 C-5.83302843 2.99642473 -4.79120469 0.69871735 0 0 Z " fill="#030303" transform="translate(486,367.5625)"/>
<path d="M0 0 C18.81 0 37.62 0 57 0 C57 8.91 57 17.82 57 27 C56.67 27 56.34 27 56 27 C56 18.42 56 9.84 56 1 C38.18 1 20.36 1 2 1 C2 45.88 2 90.76 2 137 C10.25 137 18.5 137 27 137 C27 117.53 27 98.06 27 78 C26.34 78 25.68 78 25 78 C25.495 76.515 25.495 76.515 26 75 C35.24 75 44.48 75 54 75 C53.67 73.68 53.34 72.36 53 71 C52.85966422 69.560265 52.75583143 68.11662851 52.68359375 66.671875 C52.64548584 65.9509668 52.60737793 65.23005859 52.56811523 64.48730469 C52.52501221 63.58399414 52.48190918 62.68068359 52.4375 61.75 C52.293125 58.8625 52.14875 55.975 52 53 C44.41 52.67 36.82 52.34 29 52 C29 51.34 29 50.68 29 50 C33.14581887 49.97113249 37.29161216 49.95324673 41.4375 49.9375 C42.62150391 49.92912109 43.80550781 49.92074219 45.02539062 49.91210938 C46.15009766 49.90888672 47.27480469 49.90566406 48.43359375 49.90234375 C49.47572021 49.89710693 50.51784668 49.89187012 51.59155273 49.88647461 C54 50 54 50 55 51 C55.08737645 52.85369611 55.10698153 54.71067541 55.09765625 56.56640625 C55.09515869 57.57904541 55.09266113 58.59168457 55.09008789 59.63500977 C55.08098389 60.93108154 55.07187988 62.22715332 55.0625 63.5625 C55.041875 67.666875 55.02125 71.77125 55 76 C46.42 76 37.84 76 29 76 C29 96.46 29 116.92 29 138 C19.43 138 9.86 138 0 138 C0 92.46 0 46.92 0 0 Z " fill="#989898" transform="translate(272,343)"/>
<path d="M0 0 C9.57 0 19.14 0 29 0 C30.60857972 1.60857972 30.57047156 3.56220594 30.97265625 5.76953125 C31.14990234 6.74083984 31.32714844 7.71214844 31.50976562 8.71289062 C31.69216797 9.73576172 31.87457031 10.75863281 32.0625 11.8125 C32.24876953 12.82376953 32.43503906 13.83503906 32.62695312 14.87695312 C33.37363483 19.01515611 34 22.77996307 34 27 C33.34 27 32.68 27 32 27 C31.79503906 25.86820312 31.59007812 24.73640625 31.37890625 23.5703125 C31.10693028 22.08851239 30.83478613 20.60674315 30.5625 19.125 C30.42779297 18.37863281 30.29308594 17.63226563 30.15429688 16.86328125 C29.45463389 12.81466622 29.45463389 12.81466622 28 9 C28 6.36 28 3.72 28 1 C19.42 1 10.84 1 2 1 C2 45.88 2 90.76 2 137 C9.92 137 17.84 137 26 137 C26 114.89 26 92.78 26 70 C26.99 70 27.98 70 29 70 C30.7479503 75.24385089 31.19392201 79.47322267 31 85 C30.67 84.01 30.34 83.02 30 82 C29.34 82 28.68 82 28 82 C28.00222061 82.68682358 28.00444122 83.37364716 28.00672913 84.08128357 C28.02877895 91.20205162 28.04390533 98.32281004 28.05493164 105.44360352 C28.05997383 108.10441481 28.06680736 110.76522332 28.07543945 113.42602539 C28.08751009 117.24105516 28.09322929 121.05604844 28.09765625 124.87109375 C28.10281754 126.06899033 28.10797882 127.2668869 28.11329651 128.50108337 C28.11340981 130.15268211 28.11340981 130.15268211 28.11352539 131.83764648 C28.115746 132.81249496 28.11796661 133.78734344 28.12025452 134.79173279 C28 137 28 137 27 138 C18.09 138 9.18 138 0 138 C0 92.46 0 46.92 0 0 Z " fill="#A6A6A6" transform="translate(373,343)"/>
<path d="M0 0 C8.91 0 17.82 0 27 0 C27 45.54 27 91.08 27 138 C18.09 138 9.18 138 0 138 C0 137.67 0 137.34 0 137 C8.25 137 16.5 137 25 137 C25 92.12 25 47.24 25 1 C17.08 1 9.16 1 1 1 C1 21.46 1 41.92 1 63 C0.01 63.495 0.01 63.495 -1 64 C-3.25684543 58.63999211 -4.36263859 54.8022175 -4 49 C-3.34 49.99 -2.68 50.98 -2 52 C-1.9845388 51.04493309 -1.9845388 51.04493309 -1.96876526 50.0705719 C-1.86093669 43.46873202 -1.74632039 36.86703522 -1.62768555 30.26538086 C-1.58426057 27.79861431 -1.54259128 25.33181622 -1.50268555 22.86499023 C-1.44516555 19.32786534 -1.38141925 15.79090034 -1.31640625 12.25390625 C-1.29969376 11.14350479 -1.28298126 10.03310333 -1.26576233 8.88905334 C-1.24581711 7.86807053 -1.22587189 6.84708771 -1.20532227 5.79516602 C-1.18977798 4.89137711 -1.1742337 3.9875882 -1.15821838 3.05641174 C-1 1 -1 1 0 0 Z " fill="#A5A5A5" transform="translate(415,343)"/>
<path d="M0 0 C9.24 0 18.48 0 28 0 C28 45.54 28 91.08 28 138 C18.76 138 9.52 138 0 138 C-0.495 132.06 -0.495 132.06 -1 126 C-0.34 126 0.32 126 1 126 C1 129.63 1 133.26 1 137 C9.58 137 18.16 137 27 137 C27 92.12 27 47.24 27 1 C18.75 1 10.5 1 2 1 C2 21.79 2 42.58 2 64 C-3.04293098 58.95706902 -3.70229367 51.28573067 -4.1875 44.30078125 C-4.1875 42.53274913 -4.10589149 40.76485823 -4 39 C-3.67 39 -3.34 39 -3 39 C-2.34 42.3 -1.68 45.6 -1 49 C-0.67 32.83 -0.34 16.66 0 0 Z " fill="#959595" transform="translate(233,343)"/>
<path d="M0 0 C3 0.4375 3 0.4375 4.8125 1.75 C7.49771827 5.56583648 7.1355273 9.57538272 7.11352539 14.0300293 C7.11367142 14.80099945 7.11381744 15.5719696 7.1139679 16.36630249 C7.11327119 18.91480319 7.1054901 21.46323082 7.09765625 24.01171875 C7.09579121 25.77863017 7.09436771 27.5455421 7.09336853 29.31245422 C7.08955012 33.96328153 7.07972558 38.61407761 7.06866455 43.26489258 C7.05843591 48.01057513 7.05386779 52.75626273 7.04882812 57.50195312 C7.03810273 66.8138158 7.02103439 76.1256553 7 85.4375 C6.34 85.4375 5.68 85.4375 5 85.4375 C4.67 58.3775 4.34 31.3175 4 3.4375 C2.02 3.4375 0.04 3.4375 -2 3.4375 C-2 4.0975 -2 4.7575 -2 5.4375 C-2.66 5.4375 -3.32 5.4375 -4 5.4375 C-4 31.8375 -4 58.2375 -4 85.4375 C-4.33 85.4375 -4.66 85.4375 -5 85.4375 C-5.79059978 80.54840319 -6.13478082 75.8803508 -6.16113281 70.91333008 C-6.16858017 69.83878822 -6.16858017 69.83878822 -6.17617798 68.74253845 C-6.19066157 66.39735931 -6.19757472 64.05224756 -6.203125 61.70703125 C-6.20595238 60.90203375 -6.20877975 60.09703625 -6.21169281 59.26764488 C-6.22662154 55.01607312 -6.23589359 50.7645348 -6.24023438 46.51293945 C-6.24574099 42.12467382 -6.26983262 37.73671502 -6.29820633 33.34854603 C-6.31681737 29.96765739 -6.32203726 26.58684336 -6.32357025 23.20590782 C-6.32659569 21.58757519 -6.33462057 19.96924384 -6.34775543 18.35096169 C-6.36480056 16.09156253 -6.36294103 13.83292359 -6.35644531 11.57348633 C-6.36009094 10.28888016 -6.36373657 9.00427399 -6.36749268 7.68074036 C-5.8371927 3.00067356 -4.80006519 0.70000951 0 0 Z " fill="#434343" transform="translate(486,367.5625)"/>
<path d="M0 0 C2.64 0 5.28 0 8 0 C8.33 0.99 8.66 1.98 9 3 C9.66 3.33 10.32 3.66 11 4 C11.06948078 14.88311581 11.12280153 25.76617893 11.15543652 36.64947128 C11.17109891 41.70291726 11.19234774 46.75621161 11.22631836 51.80957031 C11.25889122 56.68546288 11.27684869 61.56120949 11.28463173 66.43720245 C11.29017896 68.29836576 11.30101123 70.159521 11.31719017 72.02062225 C11.33893693 74.62557803 11.34196809 77.22992913 11.34057617 79.83496094 C11.351362 80.60604187 11.36214783 81.3771228 11.3732605 82.17156982 C11.35498098 85.32877019 11.18069347 87.64871898 9.72480774 90.47906494 C7.35051304 92.57271745 5.11390916 92.48379331 2.03515625 92.53125 C-1.01486689 91.73508273 -2.08293087 90.50359418 -4 88 C-4.37403548 85.1167327 -4.50714898 82.62193377 -4.45410156 79.74316406 C-4.45497772 78.49870766 -4.45497772 78.49870766 -4.45587158 77.22911072 C-4.45308808 74.49085437 -4.42198411 71.75369083 -4.390625 69.015625 C-4.38316354 67.11562698 -4.37747016 65.21562126 -4.37347412 63.31561279 C-4.35821028 58.31771554 -4.31892193 53.32028414 -4.2746582 48.3225708 C-4.23372172 43.22162172 -4.21546657 38.12059729 -4.1953125 33.01953125 C-4.15242847 23.01281629 -4.08416798 13.0064469 -4 3 C-2.68 2.67 -1.36 2.34 0 2 C0 1.34 0 0.68 0 0 Z M-1.67204285 3.57551575 C-3.4773172 6.87144982 -3.3741616 9.35207968 -3.37231445 13.10424805 C-3.37596512 13.81213974 -3.37961578 14.52003143 -3.38337708 15.24937439 C-3.39147452 17.58706757 -3.37787293 19.92406539 -3.36328125 22.26171875 C-3.36276225 23.89353942 -3.36328148 25.52536073 -3.36479187 27.15718079 C-3.36470216 30.57941003 -3.35428152 34.00140365 -3.33618164 37.42358398 C-3.31358445 41.79011104 -3.31293431 46.15629121 -3.31969929 50.52286053 C-3.3230582 53.89540129 -3.3163717 57.26786441 -3.30657005 60.6403904 C-3.30274404 62.24898687 -3.30155895 63.85759202 -3.3031559 65.46619225 C-3.30449451 73.53631621 -3.23164649 81.17119088 -1 89 C3.34263862 89.16702456 6.20960634 89.12999997 10 87 C10.06953038 76.78607673 10.12282675 66.57220983 10.15543652 56.35809803 C10.1710881 51.61519317 10.19231715 46.8724503 10.22631836 42.12963867 C10.25892985 37.55199785 10.27685684 32.97451279 10.28463173 28.39676476 C10.29017202 26.65086096 10.30099089 24.90496562 10.31719017 23.15912819 C10.33898842 20.71242518 10.34196595 18.26636467 10.34057617 15.81958008 C10.351362 15.09884811 10.36214783 14.37811615 10.3732605 13.63554382 C10.34381951 8.84108513 9.44765866 5.44765866 6 2 C1.7686807 1.44699486 1.7686807 1.44699486 -1.67204285 3.57551575 Z " fill="#D8D8D8" transform="translate(483,366)"/>
<path d="M0 0 C4.14581887 -0.02886751 8.29161216 -0.04675327 12.4375 -0.0625 C13.62150391 -0.07087891 14.80550781 -0.07925781 16.02539062 -0.08789062 C17.15009766 -0.09111328 18.27480469 -0.09433594 19.43359375 -0.09765625 C20.47572021 -0.10289307 21.51784668 -0.10812988 22.59155273 -0.11352539 C25 0 25 0 26 1 C26.08737645 2.85369611 26.10698153 4.71067541 26.09765625 6.56640625 C26.09515869 7.57904541 26.09266113 8.59168457 26.09008789 9.63500977 C26.08098389 10.93108154 26.07187988 12.22715332 26.0625 13.5625 C26.041875 17.666875 26.02125 21.77125 26 26 C17.09 26 8.18 26 -1 26 C-1 46.13 -1 66.26 -1 87 C-1.33 87 -1.66 87 -2 87 C-2 67.53 -2 48.06 -2 28 C-2.66 28 -3.32 28 -4 28 C-3.505 26.515 -3.505 26.515 -3 25 C6.24 25 15.48 25 25 25 C24.67 23.68 24.34 22.36 24 21 C23.85966422 19.560265 23.75583143 18.11662851 23.68359375 16.671875 C23.62643188 15.5905127 23.62643188 15.5905127 23.56811523 14.48730469 C23.52501221 13.58399414 23.48190918 12.68068359 23.4375 11.75 C23.293125 8.8625 23.14875 5.975 23 3 C11.615 2.505 11.615 2.505 0 2 C0 1.34 0 0.68 0 0 Z " fill="#C7C7C6" transform="translate(301,393)"/>
<path d="M0 0 C0.99 0 1.98 0 3 0 C4.7479503 5.24385089 5.19392201 9.47322267 5 15 C4.67 14.01 4.34 13.02 4 12 C3.34 12 2.68 12 2 12 C2 30.15 2 48.3 2 67 C1.34 67 0.68 67 0 67 C0 44.89 0 22.78 0 0 Z " fill="#DADADA" transform="translate(399,413)"/>
<path d="M0 0 C0.66 0 1.32 0 2 0 C2.67507066 3.06070934 3.33854922 6.1238209 4 9.1875 C4.19078125 10.05181641 4.3815625 10.91613281 4.578125 11.80664062 C4.75859375 12.64775391 4.9390625 13.48886719 5.125 14.35546875 C5.29257812 15.12528076 5.46015625 15.89509277 5.6328125 16.68823242 C6.02550915 19.16060247 6.06185285 21.50075809 6 24 C5.67 23.01 5.34 22.02 5 21 C4.34 21.33 3.68 21.66 3 22 C3 33.22 3 44.44 3 56 C1.68 55.67 0.36 55.34 -1 55 C-0.67 36.85 -0.34 18.7 0 0 Z " fill="#383838" transform="translate(401,425)"/>
<path d="M0 0 C-0.33 1.65 -0.66 3.3 -1 5 C-1.99 5.33 -2.98 5.66 -4 6 C-4.70151152 7.3153341 -5.36525925 8.65117592 -6 10 C-7.4375 11.75 -7.4375 11.75 -9 13 C-9.99 13 -10.98 13 -12 13 C-12.309375 13.78375 -12.61875 14.5675 -12.9375 15.375 C-14 18 -14 18 -15 20 C-15.99 20 -16.98 20 -18 20 C-18 20.66 -18 21.32 -18 22 C-23.23809524 27 -23.23809524 27 -28 27 C-28 26.34 -28 25.68 -28 25 C-27.34 25 -26.68 25 -26 25 C-25.67 23.68 -25.34 22.36 -25 21 C-24.01 21 -23.02 21 -22 21 C-22 20.34 -22 19.68 -22 19 C-21.34 19 -20.68 19 -20 19 C-19.8040625 18.31421875 -19.608125 17.6284375 -19.40625 16.921875 C-17.47870663 12.91686823 -14.67200571 10.31191441 -11.5 7.25 C-10.60861328 6.36634766 -10.60861328 6.36634766 -9.69921875 5.46484375 C-4.13387213 0 -4.13387213 0 0 0 Z " fill="#181918" transform="translate(325,196)"/>
<path d="M0 0 C8.91 0 17.82 0 27 0 C27 0.33 27 0.66 27 1 C18.42 1 9.84 1 1 1 C1 7.6 1 14.2 1 21 C3.79791016 20.98259766 3.79791016 20.98259766 6.65234375 20.96484375 C9.08072817 20.95546775 11.50911367 20.94636735 13.9375 20.9375 C15.16919922 20.92912109 16.40089844 20.92074219 17.66992188 20.91210938 C18.83974609 20.90888672 20.00957031 20.90566406 21.21484375 20.90234375 C22.84087524 20.89448853 22.84087524 20.89448853 24.49975586 20.88647461 C27 21 27 21 28 22 C28.08758003 23.99964982 28.10696576 26.0023611 28.09765625 28.00390625 C28.09443359 29.21884766 28.09121094 30.43378906 28.08789062 31.68554688 C28.07951172 32.96494141 28.07113281 34.24433594 28.0625 35.5625 C28.05798828 36.84576172 28.05347656 38.12902344 28.04882812 39.45117188 C28.03699545 42.63416022 28.02051068 45.81705762 28 49 C27.34 49 26.68 49 26 49 C25.505 36.625 25.505 36.625 25 24 C16.75 23.67 8.5 23.34 0 23 C0 15.41 0 7.82 0 0 Z " fill="#4D4D4D" transform="translate(301,370)"/>
<path d="M0 0 C1.65 0 3.3 0 5 0 C5.33 0.99 5.66 1.98 6 3 C5.01 3.33 4.02 3.66 3 4 C2.67 4.99 2.34 5.98 2 7 C1.236875 7.45375 0.47375 7.9075 -0.3125 8.375 C-3.31415771 10.18995582 -4.8556298 12.2640794 -7 15 C-7.66 15 -8.32 15 -9 15 C-9.061875 15.556875 -9.12375 16.11375 -9.1875 16.6875 C-10.3480769 19.99068042 -12.40213446 21.71894733 -15 24 C-15.66 24 -16.32 24 -17 24 C-17 24.66 -17 25.32 -17 26 C-18.98 26.33 -20.96 26.66 -23 27 C-22.67 25.68 -22.34 24.36 -22 23 C-21.34 23 -20.68 23 -20 23 C-20 22.34 -20 21.68 -20 21 C-18.29059971 19.39771617 -16.46698472 17.98705258 -14.62890625 16.53515625 C-12.73441742 14.99243114 -12.73441742 14.99243114 -12 12 C-11.34 12 -10.68 12 -10 12 C-10 11.34 -10 10.68 -10 10 C-8.68 10 -7.36 10 -6 10 C-6 8.68 -6 7.36 -6 6 C-4.125 3.75 -4.125 3.75 -2 2 C-1.34 2 -0.68 2 0 2 C0 1.34 0 0.68 0 0 Z " fill="#1B1B1B" transform="translate(367,242)"/>
<path d="M0 0 C0.99 0 1.98 0 3 0 C3.36458333 4.49652778 3.36458333 4.49652778 1.6875 6.8125 C0 8 0 8 -3 8 C-3.0825 8.61875 -3.165 9.2375 -3.25 9.875 C-4.23625439 12.66938743 -5.43390399 12.716952 -8 14 C-8.36162029 15.32594105 -8.69728039 16.65938457 -9 18 C-9.99 18.33 -10.98 18.66 -12 19 C-12.268125 19.598125 -12.53625 20.19625 -12.8125 20.8125 C-14.50097137 23.92284199 -17.05924696 25.12292359 -20 27 C-20.33 27.66 -20.66 28.32 -21 29 C-21.66 29 -22.32 29 -23 29 C-22.5309551 24.87240487 -22.06048338 21.94713214 -19 19 C-17.68 19 -16.36 19 -15 19 C-15 18.01 -15 17.02 -15 16 C-14.01 16 -13.02 16 -12 16 C-11.938125 15.443125 -11.87625 14.88625 -11.8125 14.3125 C-10.6519231 11.00931958 -8.59786554 9.28105267 -6 7 C-5.34 7 -4.68 7 -4 7 C-3.34 5.35 -2.68 3.7 -2 2 C-1.34 2 -0.68 2 0 2 C0 1.34 0 0.68 0 0 Z " fill="#191A19" transform="translate(328,202)"/>
<path d="M0 0 C0.66 0 1.32 0 2 0 C2 20.46 2 40.92 2 62 C1.01 62.495 1.01 62.495 0 63 C-2.25684543 57.63999211 -3.36263859 53.8022175 -3 48 C-2.34 48.99 -1.68 49.98 -1 51 C-0.67 34.17 -0.34 17.34 0 0 Z " fill="#C3C2C2" transform="translate(414,344)"/>
<path d="M0 0 C1.875 0.25 1.875 0.25 4 1 C5.25 3.0625 5.25 3.0625 6 5 C6.66 5 7.32 5 8 5 C8 5.66 8 6.32 8 7 C8.66 7 9.32 7 10 7 C10 7.66 10 8.32 10 9 C10.928125 9.4640625 10.928125 9.4640625 11.875 9.9375 C13.25 10.625 14.625 11.3125 16 12 C16 13.98 16 15.96 16 18 C15.34 18 14.68 18 14 18 C13.78472656 18.70898438 13.56945312 19.41796875 13.34765625 20.1484375 C11.6742008 23.68937222 9.25745693 25.99641018 6.4375 28.625 C2.4358842 32.25056383 2.4358842 32.25056383 0 37 C-3.465 37.495 -3.465 37.495 -7 38 C-2.70140651 32.79643946 1.89892187 28.04483043 6.73046875 23.33203125 C9.01155729 21.09841904 9.01155729 21.09841904 10.67578125 18.69921875 C11.11277344 18.13847656 11.54976563 17.57773438 12 17 C12.66 17 13.32 17 14 17 C12.8321734 13.18586998 12.8321734 13.18586998 9.875 10.6875 C8.946875 10.3471875 8.946875 10.3471875 8 10 C8 9.34 8 8.68 8 8 C7.34 8 6.68 8 6 8 C6 7.34 6 6.68 6 6 C5.34 6 4.68 6 4 6 C4 5.34 4 4.68 4 4 C3.34 4 2.68 4 2 4 C2 3.34 2 2.68 2 2 C1.34 2 0.68 2 0 2 C0 1.34 0 0.68 0 0 Z " fill="#2E2E2E" transform="translate(303,175)"/>
<path d="M0 0 C0.66 0.33 1.32 0.66 2 1 C1.01 2.485 1.01 2.485 0 4 C-0.29908704 7.23446894 -0.29908704 7.23446894 -0.24291992 10.99072266 C-0.24481827 11.69846832 -0.24671661 12.40621399 -0.24867249 13.13540649 C-0.25238056 15.47840412 -0.24166927 17.82109231 -0.23046875 20.1640625 C-0.22927602 21.79731205 -0.22882398 23.43056229 -0.2290802 25.06381226 C-0.22751487 28.49196655 -0.21922634 31.9200165 -0.20581055 35.34814453 C-0.1889013 39.7224747 -0.18499401 44.09668934 -0.18575573 48.47104836 C-0.18548234 51.84786056 -0.17997291 55.22464797 -0.17275429 58.60145187 C-0.16959079 60.21284167 -0.16760569 61.82423426 -0.16686058 63.43562698 C-0.1592026 71.34783529 -0.11722424 79.14878328 1 87 C5.64586892 86.51515724 5.64586892 86.51515724 10 85 C9.67 85.99 9.34 86.98 9 88 C7.54207116 88.05399736 6.08357288 88.09279177 4.625 88.125 C3.81289063 88.14820313 3.00078125 88.17140625 2.1640625 88.1953125 C0 88 0 88 -2 86 C-2.18802953 83.28916342 -2.25180173 80.68132726 -2.22705078 77.97021484 C-2.22734283 77.14086929 -2.22763489 76.31152374 -2.22793579 75.45704651 C-2.22653939 72.70823808 -2.21096368 69.95969873 -2.1953125 67.2109375 C-2.19158347 65.30807646 -2.18873598 63.4052135 -2.18673706 61.50234985 C-2.17909192 56.48814617 -2.15943589 51.47405791 -2.1373291 46.4598999 C-2.11688962 41.34567832 -2.10773941 36.23143813 -2.09765625 31.1171875 C-2.07619081 21.07807422 -2.04204427 11.0390467 -2 1 C-1.34 0.67 -0.68 0.34 0 0 Z " fill="#989898" transform="translate(481,368)"/>
<path d="M0 0 C0.66 0 1.32 0 2 0 C8.78156105 11.15676174 7.14389856 24.70406336 7.09765625 37.36328125 C7.09578567 38.89169773 7.0943648 40.42011481 7.09336853 41.9485321 C7.08959363 45.92517827 7.07980779 49.90178653 7.06866455 53.87841797 C7.05834085 57.95474739 7.0538477 62.03108308 7.04882812 66.10742188 C7.03817975 74.07163177 7.02116565 82.03581114 7 90 C6.67 90 6.34 90 6 90 C5.98969254 89.19979431 5.97938507 88.39958862 5.96876526 87.57513428 C5.87025117 79.98527816 5.76766703 72.39549256 5.66066074 64.8057518 C5.6058048 60.90503185 5.55245047 57.00430411 5.50268555 53.10351562 C5.45448389 49.32979974 5.40213194 45.556161 5.34705925 41.78253937 C5.32688505 40.35227666 5.30813557 38.92199304 5.29092598 37.49169159 C5.25038975 19.90234898 5.25038975 19.90234898 1 3 C0.67 2.01 0.34 1.02 0 0 Z " fill="#424242" transform="translate(515,354)"/>
<path d="M0 0 C0.70970947 -0.0033284 1.41941895 -0.0066568 2.15063477 -0.01008606 C3.66047517 -0.01516256 5.17032685 -0.01749416 6.68017578 -0.01733398 C8.9627618 -0.01949598 11.24484496 -0.03757441 13.52734375 -0.05664062 C20.9250779 -0.08436689 27.83281854 0.10740408 35 2.16796875 C35 2.82796875 35 3.48796875 35 4.16796875 C36.65 4.49796875 38.3 4.82796875 40 5.16796875 C36.25 6.29296875 36.25 6.29296875 34 5.16796875 C34 4.50796875 34 3.84796875 34 3.16796875 C32.824375 3.18859375 31.64875 3.20921875 30.4375 3.23046875 C27.82332608 3.27633145 25.48763557 3.08611934 22.89453125 2.671875 C17.99090007 2.03740316 13.18816151 2.02242161 8.25 2.04296875 C7.30511719 2.03910156 6.36023438 2.03523437 5.38671875 2.03125 C4.48050781 2.03253906 3.57429688 2.03382813 2.640625 2.03515625 C1.41134277 2.03684814 1.41134277 2.03684814 0.15722656 2.03857422 C-2.18440021 2.0856251 -2.18440021 2.0856251 -5 3.16796875 C-7.33299825 3.20751109 -9.66708189 3.21198607 -12 3.16796875 C-12 3.82796875 -12 4.48796875 -12 5.16796875 C-13.22976563 5.36712891 -13.22976563 5.36712891 -14.484375 5.5703125 C-16.10085938 5.83521484 -16.10085938 5.83521484 -17.75 6.10546875 C-19.35101563 6.36650391 -19.35101563 6.36650391 -20.984375 6.6328125 C-23.36347593 7.05501046 -25.66915211 7.53999759 -28 8.16796875 C-28 7.50796875 -28 6.84796875 -28 6.16796875 C-27.01 6.16796875 -26.02 6.16796875 -25 6.16796875 C-25 5.50796875 -25 4.84796875 -25 4.16796875 C-23.78441406 3.96300781 -22.56882812 3.75804687 -21.31640625 3.546875 C-19.73173486 3.27494914 -18.14710137 3.00280232 -16.5625 2.73046875 C-15.76005859 2.59576172 -14.95761719 2.46105469 -14.13085938 2.32226562 C-0.71369994 0.00115365 -0.71369994 0.00115365 0 0 Z " fill="#5A5A5A" transform="translate(424,150.83203125)"/>
<path d="M0 0 C0.67095703 0.58007812 0.67095703 0.58007812 1.35546875 1.171875 C2.61555495 2.25732239 3.87875928 3.33915711 5.14453125 4.41796875 C6.5608774 5.6255902 7.96966734 6.84207954 9.375 8.0625 C13.03857227 10.76656524 16.98475772 12.86553569 21 15 C21 15.66 21 16.32 21 17 C22.32 17.33 23.64 17.66 25 18 C25 18.66 25 19.32 25 20 C25.67546875 20.13277344 26.3509375 20.26554687 27.046875 20.40234375 C27.93890625 20.57894531 28.8309375 20.75554687 29.75 20.9375 C31.07257813 21.19853516 31.07257813 21.19853516 32.421875 21.46484375 C34.63235053 21.92368488 36.81512068 22.43336074 39 23 C39 23.66 39 24.32 39 25 C41.31 25 43.62 25 46 25 C46 25.33 46 25.66 46 26 C39.84765625 26.09765625 39.84765625 26.09765625 38 26 C37.67 25.67 37.34 25.34 37 25 C34.67182036 24.63239269 32.3381615 24.29758419 30 24 C30 23.34 30 22.68 30 22 C28.02 22 26.04 22 24 22 C24 21.34 24 20.68 24 20 C22.68 20 21.36 20 20 20 C20 19.34 20 18.68 20 18 C19.34 18 18.68 18 18 18 C18 17.34 18 16.68 18 16 C16.68 16 15.36 16 14 16 C13.938125 15.071875 13.938125 15.071875 13.875 14.125 C13.58625 13.42375 13.2975 12.7225 13 12 C11.700625 11.62875 11.700625 11.62875 10.375 11.25 C5.59263153 9.47875242 2.90378747 6.12372186 0 2 C0 1.34 0 0.68 0 0 Z " fill="#7B7B7B" transform="translate(183,293)"/>
<path d="M0 0 C1.00023193 0.00523682 2.00046387 0.01047363 3.03100586 0.01586914 C4.1105957 0.0190918 5.19018555 0.02231445 6.30249023 0.02563477 C8.00695312 0.03820312 8.00695312 0.03820312 9.74584961 0.05102539 C11.45611328 0.05779297 11.45611328 0.05779297 13.20092773 0.06469727 C16.02845312 0.07652792 18.85587601 0.09301129 21.68334961 0.11352539 C21.68334961 0.44352539 21.68334961 0.77352539 21.68334961 1.11352539 C20.42780273 1.1509082 19.17225586 1.18829102 17.87866211 1.22680664 C6.02216179 1.56703214 6.02216179 1.56703214 -5.40649414 4.49243164 C-7.31665039 5.11352539 -7.31665039 5.11352539 -11.31665039 5.11352539 C-11.31665039 5.77352539 -11.31665039 6.43352539 -11.31665039 7.11352539 C-11.8593457 7.3674707 -12.40204102 7.62141602 -12.96118164 7.88305664 C-13.67661133 8.22723633 -14.39204102 8.57141602 -15.12915039 8.92602539 C-15.8368457 9.2624707 -16.54454102 9.59891602 -17.27368164 9.94555664 C-19.33987746 11.12680435 -20.67683084 12.40939919 -22.31665039 14.11352539 C-23.14165039 14.56727539 -23.96665039 15.02102539 -24.81665039 15.48852539 C-27.68925337 17.35571733 -28.68081541 19.15344304 -30.31665039 22.11352539 C-30.97665039 22.44352539 -31.63665039 22.77352539 -32.31665039 23.11352539 C-28.02873568 14.20785637 -23.26072726 9.34936461 -14.31665039 5.11352539 C-12.99405685 4.73984742 -11.66253603 4.39187901 -10.31665039 4.11352539 C-10.31665039 3.45352539 -10.31665039 2.79352539 -10.31665039 2.11352539 C-9.18227539 1.96915039 -8.04790039 1.82477539 -6.87915039 1.67602539 C-3.70971562 1.17558832 -2.89693227 0.14196159 0 0 Z " fill="#767676" transform="translate(235.316650390625,187.886474609375)"/>
<path d="M0 0 C0.66 0 1.32 0 2 0 C1.9278125 1.01835937 1.855625 2.03671875 1.78125 3.0859375 C0.70374503 19.13155867 0.77672912 34.96641385 2 51 C-2.97338209 42.43240901 -2.17940895 30.23554617 -2.1875 20.625 C-2.18830566 19.71057129 -2.18911133 18.79614258 -2.18994141 17.85400391 C-2.0609365 2.0609365 -2.0609365 2.0609365 0 0 Z " fill="#C7C7C7" transform="translate(162,211)"/>
<path d="M0 0 C0.33 0 0.66 0 1 0 C1 20.79 1 41.58 1 63 C-4.04293098 57.95706902 -4.70229367 50.28573067 -5.1875 43.30078125 C-5.1875 41.53274913 -5.10589149 39.76485823 -5 38 C-4.67 38 -4.34 38 -4 38 C-3.01 43.28 -2.02 48.56 -1 54 C-0.67 36.18 -0.34 18.36 0 0 Z " fill="#B0B0B0" transform="translate(234,344)"/>
<path d="M0 0 C0 0.66 0 1.32 0 2 C0.66386719 1.95359375 1.32773437 1.9071875 2.01171875 1.859375 C9.27107062 1.56264237 9.27107062 1.56264237 13.125 3.875 C15 6 15 6 15 8 C12.03 7.01 9.06 6.02 6 5 C6 4.34 6 3.68 6 3 C4.081875 3.0309375 4.081875 3.0309375 2.125 3.0625 C-1.75 3.125 -1.75 3.125 -4 2 C-6.69893181 1.91324462 -9.37169231 1.88442103 -12.0703125 1.90234375 C-12.86654022 1.9037587 -13.66276794 1.90517365 -14.48312378 1.90663147 C-17.0304538 1.91223655 -19.57769647 1.92478986 -22.125 1.9375 C-23.85025915 1.94251435 -25.57551967 1.94707737 -27.30078125 1.95117188 C-31.53388791 1.96220763 -35.76692914 1.97947564 -40 2 C-30.42937416 -4.38041723 -10.97247268 -1.41580293 0 0 Z " fill="#707070" transform="translate(266,151)"/>
<path d="M0 0 C0.66 0.33 1.32 0.66 2 1 C-3.43085398 8.37044468 -10.13306447 10.62367397 -19 12 C-23.39920924 12.38899871 -27.77225639 12.52482291 -32.1875 12.5625 C-33.81800293 12.58449463 -33.81800293 12.58449463 -35.48144531 12.60693359 C-43.19345589 12.50688719 -43.19345589 12.50688719 -47.23828125 9.96484375 C-47.81964844 9.31644531 -48.40101563 8.66804688 -49 8 C-43 9 -43 9 -40.40625 9.53125 C-35.95946944 10.14319228 -31.60682731 10.10637331 -27.125 10.0625 C-26.24585938 10.05798828 -25.36671875 10.05347656 -24.4609375 10.04882812 C-22.30726197 10.03712337 -20.15362183 10.01919069 -18 10 C-18 9.34 -18 8.68 -18 8 C-17.37351562 7.95101563 -16.74703125 7.90203125 -16.1015625 7.8515625 C-15.28429687 7.77679688 -14.46703125 7.70203125 -13.625 7.625 C-12.81289063 7.55539062 -12.00078125 7.48578125 -11.1640625 7.4140625 C-8.79665809 7.17107412 -8.79665809 7.17107412 -7 5 C-6.01 5 -5.02 5 -4 5 C-4 4.01 -4 3.02 -4 2 C-2.68 2 -1.36 2 0 2 C0 1.34 0 0.68 0 0 Z " fill="#333333" transform="translate(462,271)"/>
<path d="M0 0 C3.2516058 1.6258029 3.79395439 4.58374585 5.046875 7.875 C8.98669033 20.79242731 9.13585941 35.74058481 7 49 C6.67 49 6.34 49 6 49 C5.98018066 48.37657715 5.96036133 47.7531543 5.93994141 47.11083984 C5.53070837 25.10408798 5.53070837 25.10408798 0 4 C0 2.68 0 1.36 0 0 Z " fill="#BFBFBF" transform="translate(508,201)"/>
<path d="M0 0 C0.33 0 0.66 0 1 0 C1 21.45 1 42.9 1 65 C-0.485 65.495 -0.485 65.495 -2 66 C-4.09230769 61.56923077 -4.09230769 61.56923077 -3.625 58.6875 C-3.41875 58.130625 -3.2125 57.57375 -3 57 C-2.34 58.32 -1.68 59.64 -1 61 C-0.67 40.87 -0.34 20.74 0 0 Z " fill="#DCDCDC" transform="translate(235,344)"/>
<path d="M0 0 C-3.21451269 1.60725635 -6.43612536 1.05748185 -10 1 C-10 1.66 -10 2.32 -10 3 C-13.60409539 3.05906119 -17.20806309 3.09394639 -20.8125 3.125 C-22.31973633 3.15013672 -22.31973633 3.15013672 -23.85742188 3.17578125 C-30.78945544 3.22036024 -37.22940584 2.48266066 -44 1 C-44 0.67 -44 0.34 -44 0 C-43.07251953 0.00523682 -42.14503906 0.01047363 -41.18945312 0.01586914 C-37.71548834 0.03301327 -34.24156918 0.04549965 -30.76757812 0.05493164 C-29.27017503 0.05992943 -27.77277673 0.0667299 -26.27539062 0.07543945 C-24.11066495 0.08770623 -21.94600435 0.09327397 -19.78125 0.09765625 C-18.48251953 0.10289307 -17.18378906 0.10812988 -15.84570312 0.11352539 C-13.03697417 0.03061154 -10.43857608 -0.16226152 -7.66992188 -0.53344727 C-4.57040538 -0.92748505 -2.85933739 -1.07225152 0 0 Z " fill="#BCBCBC" transform="translate(266,317)"/>
<path d="M0 0 C0.66 0 1.32 0 2 0 C2.33872513 1.41538717 2.67074624 2.83237963 3 4.25 C3.185625 5.03890625 3.37125 5.8278125 3.5625 6.640625 C4 9 4 9 4 13 C3.34 13 2.68 13 2 13 C1.67 25.87 1.34 38.74 1 52 C0.67 52 0.34 52 0 52 C0 34.84 0 17.68 0 0 Z " fill="#1D1D1D" transform="translate(221,429)"/>
<path d="M0 0 C0 0.66 0 1.32 0 2 C-6.95068039 4.79080349 -13.54508438 5.63419196 -21 6 C-21 6.66 -21 7.32 -21 8 C-24.11954128 9.55977064 -27.42959384 9.12104126 -30.8515625 9.09765625 C-31.62559418 9.0962413 -32.39962585 9.09482635 -33.19711304 9.09336853 C-35.67311442 9.08776403 -38.14902588 9.07521083 -40.625 9.0625 C-42.30208203 9.05748558 -43.97916547 9.05292257 -45.65625 9.04882812 C-49.77086806 9.03779315 -53.88541878 9.02052554 -58 9 C-58 8.34 -58 7.68 -58 7 C-41.665 7.495 -41.665 7.495 -25 8 C-25 7.34 -25 6.68 -25 6 C-23.13794922 5.60167969 -23.13794922 5.60167969 -21.23828125 5.1953125 C-19.59630478 4.83876904 -17.95438041 4.48198556 -16.3125 4.125 C-15.08756836 3.86396484 -15.08756836 3.86396484 -13.83789062 3.59765625 C-9.38147833 2.62337988 -4.42359475 0 0 0 Z " fill="#797979" transform="translate(469,312)"/>
<path d="M0 0 C1.11858398 -0.01160156 1.11858398 -0.01160156 2.25976562 -0.0234375 C6.19950126 -0.00937957 8.89181911 0.33711611 12.3125 2.25 C11.6326001 2.25410889 10.9527002 2.25821777 10.25219727 2.26245117 C7.12562423 2.29565889 4.00093033 2.36633171 0.875 2.4375 C-0.19427734 2.44330078 -1.26355469 2.44910156 -2.36523438 2.45507812 C-9.75197336 2.65838287 -14.59107731 4.10312853 -20.6875 8.25 C-22.2034375 9.1471875 -22.2034375 9.1471875 -23.75 10.0625 C-24.389375 10.454375 -25.02875 10.84625 -25.6875 11.25 C-25.07439089 8.49100899 -24.38691525 6.73320257 -22.01953125 5.09765625 C-14.83593077 1.41553995 -8.017742 -0.08447138 0 0 Z " fill="#9D9D9D" transform="translate(485.6875,341.75)"/>
<path d="M0 0 C0 3 0 3 -1.50390625 4.54296875 C-2.18324219 5.08566406 -2.86257813 5.62835938 -3.5625 6.1875 C-6.5090227 8.64207251 -9.05201468 11.1113491 -11.5 14.0625 C-14.87806078 18.06468287 -18.69466581 21.04777084 -23 24 C-23.66 23.67 -24.32 23.34 -25 23 C-23.20867429 18.40486013 -20.35607529 17.39188033 -16.09375 15.34375 C-13.66638716 13.78589027 -13.11967842 12.60579705 -12 10 C-8.68524804 6.31694227 -5.17028926 3.65382044 -1 1 C-0.67 0.67 -0.34 0.34 0 0 Z " fill="#7A7A7A" transform="translate(318,281)"/>
<path d="M0 0 C7.23009215 9.53057601 6.79877436 19.36106862 6 31 C5.30662125 34.80955183 4.36693787 38.37924195 3 42 C2.67 42 2.34 42 2 42 C1.875 36.25 1.875 36.25 3 34 C3.26988594 30.08910737 3.23164332 26.16915063 3.25 22.25 C3.270625 21.16460937 3.29125 20.07921875 3.3125 18.9609375 C3.34120614 13.09053103 3.07963298 9.1543331 0 4 C0 2.68 0 1.36 0 0 Z " fill="#303030" transform="translate(473,212)"/>
<path d="M0 0 C0.33 0 0.66 0 1 0 C0.67 7.26 0.34 14.52 0 22 C0.66 22 1.32 22 2 22 C2.226875 23.27875 2.45375 24.5575 2.6875 25.875 C3.90089007 31.40072598 6.33308638 36.05082376 9 41 C9.67119793 42.33105806 10.33945649 43.66362262 11 45 C8.54896452 44.01958581 7.23241214 43.3486182 5.75 41.125 C5 39 5 39 5 35 C4.34 35 3.68 35 3 35 C1.23537317 31.91190305 1 30.76687864 1 27 C0.34 27 -0.32 27 -1 27 C-1.02886537 22.68751391 -1.04675255 18.37505238 -1.0625 14.0625 C-1.07087891 12.83080078 -1.07925781 11.59910156 -1.08789062 10.33007812 C-1.09111328 9.16025391 -1.09433594 7.99042969 -1.09765625 6.78515625 C-1.10289307 5.70113525 -1.10812988 4.61711426 -1.11352539 3.50024414 C-1 1 -1 1 0 0 Z " fill="#9E9E9E" transform="translate(197,221)"/>
<path d="M0 0 C0.66 0 1.32 0 2 0 C3.42944945 2.35438733 4.08661261 3.48032433 3.625 6.25 C3.41875 6.8275 3.2125 7.405 3 8 C3 7.01 3 6.02 3 5 C2.34 5 1.68 5 1 5 C1 23.15 1 41.3 1 60 C0.67 60 0.34 60 0 60 C0 40.2 0 20.4 0 0 Z " fill="#949494" transform="translate(400,420)"/>
<path d="M0 0 C0.99 0.33 1.98 0.66 3 1 C2.67 21.13 2.34 41.26 2 62 C1.67 62 1.34 62 1 62 C1 42.53 1 23.06 1 3 C0.34 3 -0.32 3 -1 3 C-0.67 2.01 -0.34 1.02 0 0 Z " fill="#E1E1E1" transform="translate(298,418)"/>
<path d="M0 0 C0.33 0 0.66 0 1 0 C1 19.47 1 38.94 1 59 C-1.14720899 56.85279101 -1.5434221 55.92209857 -2 53 C-1.67 52.34 -1.34 51.68 -1 51 C-0.88127427 49.36664808 -0.82290908 47.72872646 -0.79467773 46.09130859 C-0.7647599 44.55994766 -0.7647599 44.55994766 -0.73423767 42.99765015 C-0.70916893 41.33978989 -0.70916893 41.33978989 -0.68359375 39.6484375 C-0.66281265 38.5192691 -0.64203156 37.39010071 -0.62062073 36.22671509 C-0.55508665 32.60954028 -0.49622226 28.99229119 -0.4375 25.375 C-0.39431846 22.92707556 -0.35070429 20.47915872 -0.30664062 18.03125 C-0.19940133 12.0209125 -0.09764213 6.01050065 0 0 Z " fill="#868686" transform="translate(414,344)"/>
<path d="M0 0 C0.66 0.33 1.32 0.66 2 1 C0.870664 4.38800799 0.19884768 4.83362605 -2.625 6.8125 C-11.49548763 12.74401661 -11.49548763 12.74401661 -16 22 C-17.32 22 -18.64 22 -20 22 C-20 22.66 -20 23.32 -20 24 C-20.66 23.67 -21.32 23.34 -22 23 C-21.45621671 21.721046 -20.8889584 20.4520629 -20.3125 19.1875 C-19.84263672 18.12595703 -19.84263672 18.12595703 -19.36328125 17.04296875 C-17.62385889 14.43632721 -15.71744835 13.52881483 -13 12 C-11.38461011 10.68423888 -9.80041649 9.32923292 -8.25 7.9375 C-7.08210938 6.89916016 -7.08210938 6.89916016 -5.890625 5.83984375 C-3.92954556 4.13335053 -3.92954556 4.13335053 -3 2 C-2.01 2 -1.02 2 0 2 C0 1.34 0 0.68 0 0 Z " fill="#979797" transform="translate(349,250)"/>
<path d="M0 0 C5.03883717 5.03883717 3.22112111 16.61663154 3.24023438 23.25610352 C3.25006137 25.32542354 3.28122045 27.39379755 3.3125 29.46289062 C3.31765625 30.77064453 3.3228125 32.07839844 3.328125 33.42578125 C3.3374707 34.61598877 3.34681641 35.80619629 3.35644531 37.0324707 C3 40 3 40 1.47949219 41.91088867 C0.99125977 42.27029541 0.50302734 42.62970215 0 43 C-0.06815469 39.11518253 -0.08327776 35.55343643 0.49609375 31.703125 C1.91369914 21.28537375 1.10504102 10.41895818 0 0 Z " fill="#474747" transform="translate(514,215)"/>
<path d="M0 0 C0.66 0.33 1.32 0.66 2 1 C0.38405168 3.04119788 -1.2856382 5.04072937 -3 7 C-3.66 7 -4.32 7 -5 7 C-5.2475 7.5775 -5.495 8.155 -5.75 8.75 C-7.18299988 11.32939979 -8.78424676 13.06121592 -11 15 C-11.66 15 -12.32 15 -13 15 C-13.33 15.99 -13.66 16.98 -14 18 C-15.62890625 19.38671875 -15.62890625 19.38671875 -17.5625 20.6875 C-18.52349609 21.34298828 -18.52349609 21.34298828 -19.50390625 22.01171875 C-20.24447266 22.50091797 -20.24447266 22.50091797 -21 23 C-19.34406255 19.41213553 -17.37162309 16.16216412 -15 13 C-14.01 13 -13.02 13 -12 13 C-12 12.01 -12 11.02 -12 10 C-10.13671875 8.53515625 -10.13671875 8.53515625 -7.6875 7.0625 C-4.34423759 5.04362173 -2.17707316 3.26208696 0 0 Z " fill="#5C5C5C" transform="translate(332,213)"/>
<path d="M0 0 C0.33 0.66 0.66 1.32 1 2 C0.154375 2.515625 -0.69125 3.03125 -1.5625 3.5625 C-4.98829625 5.81118617 -7.63209857 8.59512396 -10.38671875 11.609375 C-12 13 -12 13 -15 13 C-15.33 13.99 -15.66 14.98 -16 16 C-16.99 16 -17.98 16 -19 16 C-19 15.34 -19 14.68 -19 14 C-18.34 14 -17.68 14 -17 14 C-16.938125 13.401875 -16.87625 12.80375 -16.8125 12.1875 C-15.66864193 9.10788212 -13.82304548 8.57565329 -11 7 C-10.29875 6.278125 -9.5975 5.55625 -8.875 4.8125 C-7 3 -7 3 -4 3 C-4 2.34 -4 1.68 -4 1 C-2.68 0.67 -1.36 0.34 0 0 Z " fill="#838383" transform="translate(384,166)"/>
<path d="M0 0 C-1.98 0.33 -3.96 0.66 -6 1 C-6 1.66 -6 2.32 -6 3 C-8.31 3 -10.62 3 -13 3 C-13 3.66 -13 4.32 -13 5 C-13.66 5 -14.32 5 -15 5 C-15 5.66 -15 6.32 -15 7 C-16.2684375 7.3403125 -16.2684375 7.3403125 -17.5625 7.6875 C-21.67404851 9.25736398 -24.50393484 11.34299048 -28 14 C-28.33 13.34 -28.66 12.68 -29 12 C-9.48666331 -3.28384499 -9.48666331 -3.28384499 0 0 Z " fill="#626262" transform="translate(425,190)"/>
<path d="M0 0 C0.33 0 0.66 0 1 0 C1.3765116 5.52217007 1.3765116 5.52217007 -0.47973633 7.87792969 C-2.34653227 10.48370941 -2.41932376 12.02473722 -2.51171875 15.203125 C-2.56489258 16.67265625 -2.56489258 16.67265625 -2.61914062 18.171875 C-2.64169922 19.18765625 -2.66425781 20.2034375 -2.6875 21.25 C-2.72166016 22.28125 -2.75582031 23.3125 -2.79101562 24.375 C-2.87338093 26.91655812 -2.94256834 29.45777626 -3 32 C-3.66 32 -4.32 32 -5 32 C-5.50238923 9.50412685 -5.50238923 9.50412685 0 0 Z " fill="#2D2D2D" transform="translate(202,211)"/>
<path d="M0 0 C0.33 0.66 0.66 1.32 1 2 C-0.10152406 3.43952597 -1.2063304 4.87654071 -2.3125 6.3125 C-2.92738281 7.11300781 -3.54226563 7.91351563 -4.17578125 8.73828125 C-5.69916307 10.62701374 -7.24434407 12.33077636 -9 14 C-7.68 14.66 -6.36 15.32 -5 16 C-5 16.99 -5 17.98 -5 19 C-8.23705485 17.50597469 -9.72825897 16.55642211 -11.3125 13.3125 C-10.80889584 7.97429592 -6.97213208 5.31508767 -3 2 C-2.01 1.34 -1.02 0.68 0 0 Z " fill="#A3A3A3" transform="translate(365,266)"/>
<path d="M0 0 C2.20730189 0.01085882 4.41381434 -0.000021 6.62109375 -0.01269531 C8.02734554 -0.01137598 9.43359685 -0.00881828 10.83984375 -0.00488281 C12.10634766 -0.00262695 13.37285156 -0.00037109 14.67773438 0.00195312 C17.68359375 0.26074219 17.68359375 0.26074219 19.68359375 2.26074219 C18.71010986 2.25026855 17.73662598 2.23979492 16.73364258 2.22900391 C13.108843 2.19270012 9.48405939 2.16980408 5.85913086 2.15087891 C4.29269708 2.14084493 2.72628192 2.12721465 1.15991211 2.10986328 C-1.09656378 2.08549993 -3.35279119 2.07423303 -5.609375 2.06542969 C-6.30540329 2.05510712 -7.00143158 2.04478455 -7.71855164 2.03414917 C-11.72978751 2.0332315 -14.68547836 2.5783575 -18.31640625 4.26074219 C-20.5546875 4.45605469 -20.5546875 4.45605469 -22.62890625 4.38574219 C-23.84578125 4.34449219 -25.06265625 4.30324219 -26.31640625 4.26074219 C-20.28275917 -1.7729049 -8.02402541 -0.04715747 0 0 Z " fill="#E5E4E4" transform="translate(244.31640625,151.7392578125)"/>
<path d="M0 0 C0.90032272 3.06738889 1.10573927 5.76603302 1.0625 8.95703125 C1.05476562 9.90513672 1.04703125 10.85324219 1.0390625 11.83007812 C1.01317429 13.80664264 0.98713446 15.78320518 0.9609375 17.75976562 C0.91865894 22.96355208 1.15665023 27.84837502 2 33 C2.10751986 35.6793948 2.0470821 38.31632049 2 41 C-0.93427686 37.99067151 -1.34699508 35.58445878 -1.36553955 31.43992615 C-1.35319275 30.72627396 -1.34084595 30.01262177 -1.328125 29.27734375 C-1.32625183 28.53545303 -1.32437866 27.79356232 -1.32244873 27.02919006 C-1.31574157 25.46497078 -1.30185353 23.90076789 -1.28125 22.33666992 C-1.25006365 19.94238696 -1.24027331 17.54876296 -1.234375 15.15429688 C-1.22520546 13.63280447 -1.21482985 12.11131876 -1.203125 10.58984375 C-1.19887512 9.87416733 -1.19462524 9.15849091 -1.19024658 8.42112732 C-1.14604815 5.35005456 -0.97866613 2.9359984 0 0 Z " fill="#3C3C3C" transform="translate(160,217)"/>
<path d="M0 0 C6.62429302 0.89173175 6.62429302 0.89173175 8.81640625 1.5234375 C17.09716595 3.33068738 25.92050506 2.15453198 34 0 C34.66 0 35.32 0 36 0 C36 0.66 36 1.32 36 2 C30.22580417 4.64642411 24.81360012 4.33043201 18.5625 4.3125 C17.44294922 4.32861328 16.32339844 4.34472656 15.16992188 4.36132812 C9.30590139 4.36480826 4.94230354 4.30358561 0 1 C0 0.67 0 0.34 0 0 Z " fill="#9A9A9A" transform="translate(226,280)"/>
<path d="M0 0 C1.68076231 0.63028587 3.34302621 1.30959426 5 2 C5.59296875 2.23332031 6.1859375 2.46664062 6.796875 2.70703125 C12.33788507 5.13399366 15.99783569 8.68933381 20.1171875 13.07421875 C21.8590469 15.06573597 21.8590469 15.06573597 24 16 C24.625 18.5625 24.625 18.5625 25 21 C24.01 21 23.02 21 22 21 C21.75894531 20.27296875 21.51789063 19.5459375 21.26953125 18.796875 C19.82672294 15.61825731 18.14808969 13.71472513 15.6875 11.25 C14.92824219 10.47140625 14.16898437 9.6928125 13.38671875 8.890625 C10.83187722 6.86682254 9.20301087 6.34014275 6 6 C6 5.34 6 4.68 6 4 C4.35 3.67 2.7 3.34 1 3 C0.67 2.01 0.34 1.02 0 0 Z " fill="#7F7F7F" transform="translate(448,191)"/>
<path d="M0 0 C0.99 0 1.98 0 3 0 C3 0.66 3 1.32 3 2 C2.34 2 1.68 2 1 2 C1 2.66 1 3.32 1 4 C0.030625 4.804375 -0.93875 5.60875 -1.9375 6.4375 C-5.19375327 8.70684377 -5.19375327 8.70684377 -6 12 C-7.4375 13.6875 -7.4375 13.6875 -9 15 C-9.66 15 -10.32 15 -11 15 C-10.5309551 10.87240487 -10.06048338 7.94713214 -7 5 C-5.68 5 -4.36 5 -3 5 C-3 4.01 -3 3.02 -3 2 C-2.01 2 -1.02 2 0 2 C0 1.34 0 0.68 0 0 Z " fill="#1E1E1E" transform="translate(316,216)"/>
<path d="M0 0 C-0.47429657 4.26866909 -3.03521178 6.10933148 -6 9 C-6.33 9.99 -6.66 10.98 -7 12 C-8.98 12.33 -10.96 12.66 -13 13 C-12.67 11.68 -12.34 10.36 -12 9 C-11.34 9 -10.68 9 -10 9 C-10 8.34 -10 7.68 -10 7 C-8.3203125 5.2734375 -8.3203125 5.2734375 -6.125 3.375 C-5.40570313 2.74335938 -4.68640625 2.11171875 -3.9453125 1.4609375 C-2 0 -2 0 0 0 Z " fill="#2A2A2A" transform="translate(357,256)"/>
<path d="M0 0 C2.875 0.1875 2.875 0.1875 6 1 C7.375 3.5625 7.375 3.5625 8 6 C7.01 5.34 6.02 4.68 5 4 C1.60029655 4.31829893 -0.17707487 5.78172394 -2.625 8.0625 C-5.79058824 11 -5.79058824 11 -8 11 C-8.28875 11.639375 -8.5775 12.27875 -8.875 12.9375 C-10 15 -10 15 -12 16 C-10.43930994 12.16921531 -7.93185886 9.85856238 -5 7 C-4.34 6.01 -3.68 5.02 -3 4 C-2.34 4 -1.68 4 -1 4 C-0.67 2.68 -0.34 1.36 0 0 Z " fill="#474747" transform="translate(377,250)"/>
<path d="M0 0 C0.66 0.33 1.32 0.66 2 1 C1.38125 1.556875 0.7625 2.11375 0.125 2.6875 C-2.09739528 5.10598898 -2.86072299 6.96192797 -4 10 C-4.99387334 11.33790641 -5.9926892 12.67218122 -7 14 C-7 14.66 -7 15.32 -7 16 C-9.97 15.505 -9.97 15.505 -13 15 C-9.09489511 9.49280079 -4.90282356 4.64172645 0 0 Z " fill="#3F3F3F" transform="translate(388,211)"/>
<path d="M0 0 C6.73004131 6.73004131 5.66745743 20.96401557 6 30 C4.25248523 26.95413089 3.7419119 24.61537702 3.5625 21.125 C3.29839242 17.76985557 3.02095035 16.04022468 1.4375 13 C-0.6253057 8.69501419 -0.25047142 4.69401994 0 0 Z " fill="#A7A7A7" transform="translate(221,344)"/>
<path d="M0 0 C0.99 0 1.98 0 3 0 C2.67 1.32 2.34 2.64 2 4 C2.66 4 3.32 4 4 4 C4 4.99 4 5.98 4 7 C3.34 7 2.68 7 2 7 C1.67 6.34 1.34 5.68 1 5 C-7.91 4.67 -16.82 4.34 -26 4 C-26 3.34 -26 2.68 -26 2 C-26.66 1.67 -27.32 1.34 -28 1 C-26.68 1 -25.36 1 -24 1 C-24 1.66 -24 2.32 -24 3 C-16.41 2.67 -8.82 2.34 -1 2 C-0.67 1.34 -0.34 0.68 0 0 Z " fill="#111111" transform="translate(362,339)"/>
<path d="M0 0 C0.66 0 1.32 0 2 0 C2.67245837 3.58227157 3.33695539 7.1659751 4 10.75 C4.28617187 12.27367187 4.28617187 12.27367187 4.578125 13.828125 C4.75859375 14.8078125 4.9390625 15.7875 5.125 16.796875 C5.29257812 17.69760742 5.46015625 18.59833984 5.6328125 19.52636719 C6 22 6 22 6 26 C5.34 26 4.68 26 4 26 C3.79503906 24.86820312 3.59007812 23.73640625 3.37890625 22.5703125 C3.10693028 21.08851239 2.83478613 19.60674315 2.5625 18.125 C2.42779297 17.37863281 2.29308594 16.63226563 2.15429688 15.86328125 C1.45463389 11.81466622 1.45463389 11.81466622 0 8 C-0.13415472 5.3276379 -0.04318541 2.67749512 0 0 Z " fill="#BEBEBE" transform="translate(401,344)"/>
<path d="M0 0 C0.66 0.33 1.32 0.66 2 1 C2 5 2 5 -0.04296875 7.29296875 C-1.02593313 8.19826681 -2.0119303 9.1002768 -3 10 C-4.18896601 11.178197 -5.37224147 12.36215501 -6.55078125 13.55078125 C-10.03385417 17.03385417 -13.51692708 20.51692708 -17 24 C-17 21 -17 21 -14.4453125 18.22265625 C-13.34577521 17.16172257 -12.2386463 16.10861397 -11.125 15.0625 C-6.24599371 10.63888135 -6.24599371 10.63888135 -3 5 C-2.34 5 -1.68 5 -1 5 C-0.67 3.35 -0.34 1.7 0 0 Z " fill="#A7A7A7" transform="translate(315,187)"/>
<path d="M0 0 C3.32415809 0 5.37911934 0.42758471 7.8515625 2.70703125 C9.64054087 4.75864687 11.34448402 6.83941135 13 9 C13.58394531 9.66386719 14.16789063 10.32773437 14.76953125 11.01171875 C16 13 16 13 15.6875 15.25 C15.460625 15.8275 15.23375 16.405 15 17 C13.99106869 15.90398831 12.99311775 14.79786082 12 13.6875 C11.443125 13.07261719 10.88625 12.45773437 10.3125 11.82421875 C9 10 9 10 9 7 C8.01 7 7.02 7 6 7 C5.62875 6.1028125 5.62875 6.1028125 5.25 5.1875 C3.83629988 2.71352479 2.34944617 1.56629745 0 0 Z " fill="#9F9F9F" transform="translate(502,345)"/>
<path d="M0 0 C0.33 0.99 0.66 1.98 1 3 C-0.32 3.33 -1.64 3.66 -3 4 C-3 4.66 -3 5.32 -3 6 C-3.66 6 -4.32 6 -5 6 C-5 6.66 -5 7.32 -5 8 C-5.804375 8.474375 -6.60875 8.94875 -7.4375 9.4375 C-10.2918076 10.79983672 -10.2918076 10.79983672 -11 14 C-14.0625 15.6875 -14.0625 15.6875 -17 17 C-16.875 14.75 -16.875 14.75 -16 12 C-13.375 10.0625 -13.375 10.0625 -10 8 C-8.16376158 6.49762311 -6.38771899 4.94174604 -4.61328125 3.3671875 C-3 2 -3 2 0 0 Z " fill="#7A7A7A" transform="translate(307,241)"/>
<path d="M0 0 C0.33 0.66 0.66 1.32 1 2 C0.45730469 2.25394531 -0.08539063 2.50789062 -0.64453125 2.76953125 C-1.35996094 3.11371094 -2.07539063 3.45789063 -2.8125 3.8125 C-3.52019531 4.14894531 -4.22789062 4.48539063 -4.95703125 4.83203125 C-7.02322707 6.01327896 -8.36018044 7.2958738 -10 9 C-10.825 9.45375 -11.65 9.9075 -12.5 10.375 C-15.37260298 12.24219194 -16.36416502 14.03991765 -18 17 C-18.66 17.33 -19.32 17.66 -20 18 C-16.08215216 9.8629314 -12.01221571 5.14918314 -4 1 C-1.5625 0.25 -1.5625 0.25 0 0 Z " fill="#6E6E6E" transform="translate(223,193)"/>
<path d="M0 0 C0.66 0 1.32 0 2 0 C1.86722656 0.969375 1.73445312 1.93875 1.59765625 2.9375 C0.31001779 12.61547826 -0.50733537 22.25042624 -1 32 C-1.33 32 -1.66 32 -2 32 C-2.0294191 28.52085157 -2.04693792 25.04173583 -2.0625 21.5625 C-2.07087891 20.58861328 -2.07925781 19.61472656 -2.08789062 18.61132812 C-2.10781115 12.65509124 -1.85809885 6.89867953 -1 1 C-0.67 0.67 -0.34 0.34 0 0 Z " fill="#929292" transform="translate(162,211)"/>
<path d="M0 0 C0.99 0.33 1.98 0.66 3 1 C0.67110175 5.52841327 -1.90657628 8.07612592 -6 11 C-7.32 11 -8.64 11 -10 11 C-10 10.34 -10 9.68 -10 9 C-9.34 9 -8.68 9 -8 9 C-7.67 7.68 -7.34 6.36 -7 5 C-6.01 5 -5.02 5 -4 5 C-4 4.34 -4 3.68 -4 3 C-2.68 2.67 -1.36 2.34 0 2 C0 1.34 0 0.68 0 0 Z " fill="#242424" transform="translate(307,212)"/>
<path d="M0 0 C4.60856546 1.99006236 7.03591819 3.97731754 10 8 C10.66 8.33 11.32 8.66 12 9 C12 9.99 12 10.98 12 12 C13.98 11.67 15.96 11.34 18 11 C17.67 11.99 17.34 12.98 17 14 C14.75 14.3125 14.75 14.3125 12 14 C9.875 11.5625 9.875 11.5625 8 9 C7.01 8.67 6.02 8.34 5 8 C0 2.53488372 0 2.53488372 0 0 Z " fill="#7D7D7D" transform="translate(278,202)"/>
<path d="M0 0 C0.66 0 1.32 0 2 0 C1.48055642 5.81776804 0.29503912 10.63698112 -2 16 C-2.33 16.804375 -2.66 17.60875 -3 18.4375 C-4 20 -4 20 -7 21 C-6.625 18.5625 -6.625 18.5625 -6 16 C-5.34 15.67 -4.68 15.34 -4 15 C-1.90097173 10.2294812 -0.6613804 5.15876713 0 0 Z " fill="#606060" transform="translate(512,258)"/>
<path d="M0 0 C0.33 0 0.66 0 1 0 C1 7.92 1 15.84 1 24 C0.01 24.33 -0.98 24.66 -2 25 C-2.33 26.98 -2.66 28.96 -3 31 C-4.18198006 27.56437796 -3.77648449 25.65163309 -2.625 22.25 C-0.45044122 14.93196429 -0.27581376 7.58012296 0 0 Z " fill="#AAAAAA" transform="translate(479,227)"/>
<path d="M0 0 C0.66 0 1.32 0 2 0 C2 0.66 2 1.32 2 2 C3.32 1.67 4.64 1.34 6 1 C6 2.98 6 4.96 6 7 C6.66 7 7.32 7 8 7 C9.76054874 11.64144669 11.46527032 16.27775484 13 21 C10.00215255 19.50107627 9.44139572 17.16758565 8 14.1875 C7.484375 13.12917969 6.96875 12.07085937 6.4375 10.98046875 C5.963125 9.99691406 5.48875 9.01335937 5 8 C4.33595585 6.66535863 3.67053232 5.33139349 3 4 C2.34 4 1.68 4 1 4 C0.67 2.68 0.34 1.36 0 0 Z " fill="#7C7C7C" transform="translate(495,180)"/>
<path d="M0 0 C0.66 0 1.32 0 2 0 C2 1.32 2 2.64 2 4 C2.66 4 3.32 4 4 4 C4 5.32 4 6.64 4 8 C4.66 8 5.32 8 6 8 C6.433125 8.928125 6.86625 9.85625 7.3125 10.8125 C9.60106009 15.13533573 11.56567127 17.01219746 16 19 C14.2265625 19.703125 14.2265625 19.703125 12 20 C10.1484375 18.671875 10.1484375 18.671875 8.375 16.75 C7.48941406 15.81414062 7.48941406 15.81414062 6.5859375 14.859375 C3.81198521 11.60715508 3 10.40686381 3 6 C2.34 6 1.68 6 1 6 C0.67 4.02 0.34 2.04 0 0 Z " fill="#A6A6A6" transform="translate(455,459)"/>
<path d="M0 0 C1.1240625 0.32742188 2.248125 0.65484375 3.40625 0.9921875 C8.14730541 2.17745135 12.63763058 2.22794919 17.5 2.125 C18.32242187 2.11597656 19.14484375 2.10695313 19.9921875 2.09765625 C21.99492083 2.07436865 23.99750154 2.03850959 26 2 C26 2.66 26 3.32 26 4 C22.22923111 4.05799124 18.45857666 4.09359306 14.6875 4.125 C13.61564453 4.14175781 12.54378906 4.15851563 11.43945312 4.17578125 C10.41142578 4.18222656 9.38339844 4.18867188 8.32421875 4.1953125 C7.37635498 4.20578613 6.42849121 4.21625977 5.4519043 4.22705078 C3 4 3 4 0 2 C0 1.34 0 0.68 0 0 Z " fill="#434343" transform="translate(471,479)"/>
<path d="M0 0 C2.80863541 1.26822919 4.12806261 3.39503029 5.89453125 5.85546875 C5.31703125 5.54609375 4.73953125 5.23671875 4.14453125 4.91796875 C1.12991085 3.48998918 1.12991085 3.48998918 -2.10546875 2.85546875 C-3.75141014 4.25135629 -3.75141014 4.25135629 -5.10546875 5.85546875 C-5.76546875 5.85546875 -6.42546875 5.85546875 -7.10546875 5.85546875 C-7.10546875 6.84546875 -7.10546875 7.83546875 -7.10546875 8.85546875 C-8.42546875 8.85546875 -9.74546875 8.85546875 -11.10546875 8.85546875 C-11.76546875 10.17546875 -12.42546875 11.49546875 -13.10546875 12.85546875 C-13.76546875 12.52546875 -14.42546875 12.19546875 -15.10546875 11.85546875 C-13.4615584 10.1601862 -11.79915278 8.50041367 -10.10546875 6.85546875 C-9.45449219 6.21996094 -8.80351562 5.58445312 -8.1328125 4.9296875 C-7.44316406 4.28644531 -6.75351562 3.64320313 -6.04296875 2.98046875 C-5.39199219 2.36429688 -4.74101562 1.748125 -4.0703125 1.11328125 C-2.10546875 -0.14453125 -2.10546875 -0.14453125 0 0 Z " fill="#B8B8B8" transform="translate(381.10546875,253.14453125)"/>
<path d="M0 0 C9.405 2.475 9.405 2.475 19 5 C19 5.66 19 6.32 19 7 C21.31 7 23.62 7 26 7 C26 7.33 26 7.66 26 8 C19.84765625 8.09765625 19.84765625 8.09765625 18 8 C17.67 7.67 17.34 7.34 17 7 C14.67182036 6.63239269 12.3381615 6.29758419 10 6 C10 5.34 10 4.68 10 4 C8.02 4 6.04 4 4 4 C4 3.34 4 2.68 4 2 C2.68 2 1.36 2 0 2 C0 1.34 0 0.68 0 0 Z " fill="#535353" transform="translate(203,311)"/>
<path d="M0 0 C0.66 0 1.32 0 2 0 C1.8125 1.8125 1.8125 1.8125 1 4 C-0.65071396 5.02611949 -2.31970006 6.02308143 -4 7 C-4.5775 7.78375 -5.155 8.5675 -5.75 9.375 C-8.89356722 13.0424951 -12.72627529 14.85400575 -17 17 C-17 16.34 -17 15.68 -17 15 C-15.00715862 13.6559907 -13.00580329 12.32458708 -11 11 C-8.51595053 8.6342386 -6.16918712 6.17885496 -3.8125 3.6875 C-2 2 -2 2 0 2 C0 1.34 0 0.68 0 0 Z " fill="#999999" transform="translate(496,289)"/>
<path d="M0 0 C1.65 0 3.3 0 5 0 C4.21625 0.763125 3.4325 1.52625 2.625 2.3125 C-0.07257717 4.90891805 -0.07257717 4.90891805 -2 8 C-3.63064764 9.05771739 -5.30280873 10.05273046 -7 11 C-7.928125 11.556875 -8.85625 12.11375 -9.8125 12.6875 C-10.534375 13.120625 -11.25625 13.55375 -12 14 C-12 13.34 -12 12.68 -12 12 C-10.01739574 10.31267723 -8.0167658 8.64633943 -6 7 C-5.67 6.34 -5.34 5.68 -5 5 C-4.01 4.67 -3.02 4.34 -2 4 C-0.79117904 1.99983534 -0.79117904 1.99983534 0 0 Z " fill="#4D4D4D" transform="translate(197,161)"/>
<path d="M0 0 C0.66 0 1.32 0 2 0 C2.06058594 0.62648438 2.12117187 1.25296875 2.18359375 1.8984375 C2.26738281 2.71570313 2.35117188 3.53296875 2.4375 4.375 C2.51871094 5.18710937 2.59992188 5.99921875 2.68359375 6.8359375 C2.89090114 9.04272805 2.89090114 9.04272805 4 11 C4.23029956 13.37123246 4.41119942 15.74741943 4.5625 18.125 C4.64628906 19.40632813 4.73007813 20.68765625 4.81640625 22.0078125 C4.87699219 22.99523437 4.93757812 23.98265625 5 25 C3 23 3 23 2.8046875 21.0546875 C2.86979167 19.03645833 2.93489583 17.01822917 3 15 C2.34 15 1.68 15 1 15 C0.67 10.05 0.34 5.1 0 0 Z " fill="#6D6D6D" transform="translate(226,444)"/>
<path d="M0 0 C-0.33 1.65 -0.66 3.3 -1 5 C-1.99 5.33 -2.98 5.66 -4 6 C-4 6.66 -4 7.32 -4 8 C-5.98 8.99 -7.96 9.98 -10 11 C-9.40114059 7.6989701 -8.30314403 5.78574977 -6.125 3.25 C-5.61195313 2.63640625 -5.09890625 2.0228125 -4.5703125 1.390625 C-3 0 -3 0 0 0 Z " fill="#232323" transform="translate(325,196)"/>
<path d="M0 0 C0.66 0.33 1.32 0.66 2 1 C1.28972656 1.68707031 0.57945312 2.37414062 -0.15234375 3.08203125 C-1.07144531 3.98308594 -1.99054688 4.88414062 -2.9375 5.8125 C-3.85402344 6.70582031 -4.77054687 7.59914062 -5.71484375 8.51953125 C-8.17935108 10.85436593 -8.17935108 10.85436593 -9 14 C-9.99 14.66 -10.98 15.32 -12 16 C-12.99 15.67 -13.98 15.34 -15 15 C-10 10 -5 5 0 0 Z " fill="#878787" transform="translate(363,183)"/>
<path d="M0 0 C0.66 0.33 1.32 0.66 2 1 C1.29875 1.680625 0.5975 2.36125 -0.125 3.0625 C-2.83858912 5.74525288 -5.20855121 8.65083924 -7.5703125 11.64453125 C-9 13 -9 13 -12 13 C-10.63501982 8.08607135 -8.23958284 6.61591282 -4 4 C-3.67 3.34 -3.34 2.68 -3 2 C-2.01 2 -1.02 2 0 2 C0 1.34 0 0.68 0 0 Z " fill="#9F9F9F" transform="translate(377,221)"/>
<path d="M0 0 C-0.94875 0.37125 -1.8975 0.7425 -2.875 1.125 C-7.86717947 3.24693255 -12.40315529 6.14200198 -17 9 C-15.52294119 4.3774947 -15.52294119 4.3774947 -13.16015625 2.671875 C-12.12181641 2.21554687 -12.12181641 2.21554687 -11.0625 1.75 C-10.37285156 1.43546875 -9.68320312 1.1209375 -8.97265625 0.796875 C-5.45470782 -0.62423684 -3.62268158 -1.12428049 0 0 Z " fill="#818181" transform="translate(477,344)"/>
<path d="M0 0 C0 3.73837399 -0.87486844 4.27919685 -3.375 6.9375 C-5.29672374 8.98971115 -6.84278962 10.6827719 -8.09375 13.20703125 C-9 15 -9 15 -11.125 15.75 C-12.053125 15.87375 -12.053125 15.87375 -13 16 C-13 15.34 -13 14.68 -13 14 C-12.34 14 -11.68 14 -11 14 C-11 13.34 -11 12.68 -11 12 C-10.34 12 -9.68 12 -9 12 C-8.7525 11.030625 -8.505 10.06125 -8.25 9.0625 C-7.8375 8.051875 -7.425 7.04125 -7 6 C-4.875 5.125 -4.875 5.125 -3 5 C-3 4.01 -3 3.02 -3 2 C-2.01 1.34 -1.02 0.68 0 0 Z " fill="#939393" transform="translate(364,234)"/>
<path d="M0 0 C2.76460846 1.38230423 2.99120861 2.91132229 4.125 5.75 C4.47820313 6.61109375 4.83140625 7.4721875 5.1953125 8.359375 C6.01786806 11.05863498 6.15123996 13.19701945 6 16 C5.34 16 4.68 16 4 16 C1.76172363 10.72406284 0 5.76988735 0 0 Z " fill="#8B8B8B" transform="translate(508,201)"/>
<path d="M0 0 C0 0.66 0 1.32 0 2 C-1.98 2 -3.96 2 -6 2 C-6 2.66 -6 3.32 -6 4 C-7.98 4 -9.96 4 -12 4 C-12 4.66 -12 5.32 -12 6 C-13.65 6.33 -15.3 6.66 -17 7 C-16.3359375 5.109375 -16.3359375 5.109375 -15 3 C-12.5390625 1.953125 -12.5390625 1.953125 -9.625 1.25 C-8.66851562 1.00765625 -7.71203125 0.7653125 -6.7265625 0.515625 C-4 0 -4 0 0 0 Z " fill="#B6B6B6" transform="translate(408,156)"/>
<path d="M0 0 C0.99 0.495 0.99 0.495 2 1 C4.12784853 7.3835456 4.22124638 13.31344281 4 20 C3.67 20 3.34 20 3 20 C2.49550598 17.41747107 1.99625699 14.83411297 1.5 12.25 C1.35691406 11.52039063 1.21382813 10.79078125 1.06640625 10.0390625 C0.41111121 6.60656468 0 3.50830509 0 0 Z " fill="#484848" transform="translate(406,362)"/>
<path d="M0 0 C0.33 0.99 0.66 1.98 1 3 C0.21625 3.5775 -0.5675 4.155 -1.375 4.75 C-4.0613237 6.72472742 -4.0613237 6.72472742 -4.9375 9.125 C-6 11 -6 11 -9.125 12.25 C-10.07375 12.4975 -11.0225 12.745 -12 13 C-11.61328125 12.55269531 -11.2265625 12.10539063 -10.828125 11.64453125 C-8.41308192 8.84092925 -6.03122244 6.03989534 -3.75 3.125 C-2 1 -2 1 0 0 Z " fill="#7A7A7A" transform="translate(347,199)"/>
<path d="M0 0 C1.32 0.66 2.64 1.32 4 2 C-0.61534219 6.06478107 -5.25585812 10.08608295 -10 14 C-10.33 13.01 -10.66 12.02 -11 11 C-10.01 11 -9.02 11 -8 11 C-8 10.34 -8 9.68 -8 9 C-7.34 9 -6.68 9 -6 9 C-6 8.34 -6 7.68 -6 7 C-5.195625 6.360625 -4.39125 5.72125 -3.5625 5.0625 C-0.76279268 3.18964068 -0.76279268 3.18964068 0 0 Z " fill="#1F1F1F" transform="translate(361,181)"/>
<path d="M0 0 C1.8125 0.1875 1.8125 0.1875 4 1 C7 5.17857143 7 5.17857143 7 8 C7.66 8 8.32 8 9 8 C10.38938077 9.96147874 11.7260411 11.96166576 13 14 C6.09333378 10.79333354 3.25525349 6.7609111 0 0 Z " fill="#8E8E8E" transform="translate(362,285)"/>
<path d="M0 0 C0.66 0.33 1.32 0.66 2 1 C-1.53377353 5.96936902 -4.8419049 8.91039669 -11 10 C-13.24609375 9.56640625 -13.24609375 9.56640625 -15 9 C-7.57142857 5.71428571 -7.57142857 5.71428571 -4 5 C-4 4.01 -4 3.02 -4 2 C-2.68 2 -1.36 2 0 2 C0 1.34 0 0.68 0 0 Z " fill="#878787" transform="translate(462,271)"/>
<path d="M0 0 C0.99 0 1.98 0 3 0 C4.12862175 5.36095333 4.09688221 10.55306686 4 16 C2.06757715 12.65479742 1.4536147 9.55232518 0.875 5.75 C0.70742188 4.67234375 0.53984375 3.5946875 0.3671875 2.484375 C0.24601562 1.66453125 0.12484375 0.8446875 0 0 Z " fill="#3E3E3E" transform="translate(402,343)"/>
<path d="M0 0 C0.99 0 1.98 0 3 0 C3.33 3.63 3.66 7.26 4 11 C3.67 10.01 3.34 9.02 3 8 C2.01 8.33 1.02 8.66 0 9 C0 6.03 0 3.06 0 0 Z " fill="#1E1E1E" transform="translate(403,438)"/>
<path d="M0 0 C2.86867231 1.38264837 5.56024032 2.92148553 8.25 4.625 C8.95640625 5.07101562 9.6628125 5.51703125 10.390625 5.9765625 C10.92171875 6.31429688 11.4528125 6.65203125 12 7 C10.68 7.33 9.36 7.66 8 8 C8 7.34 8 6.68 8 6 C7.01 6 6.02 6 5 6 C5 5.34 5 4.68 5 4 C3.35 4 1.7 4 0 4 C0 2.68 0 1.36 0 0 Z " fill="#4C4C4C" transform="translate(382,305)"/>
<path d="M0 0 C3.465 1.485 3.465 1.485 7 3 C7 4.32 7 5.64 7 7 C7.639375 7.12375 8.27875 7.2475 8.9375 7.375 C9.618125 7.58125 10.29875 7.7875 11 8 C11.33 8.66 11.66 9.32 12 10 C9.99105606 9.36079057 7.99220557 8.68960962 6 8 C5.2575 7.7525 4.515 7.505 3.75 7.25 C1.11912694 5.37080496 0.7925506 3.03811061 0 0 Z " fill="#696969" transform="translate(208,266)"/>
<path d="M0 0 C1.875 0.25 1.875 0.25 4 1 C5.25 3.0625 5.25 3.0625 6 5 C6.66 5 7.32 5 8 5 C8 5.66 8 6.32 8 7 C8.66 7 9.32 7 10 7 C10 7.99 10 8.98 10 10 C9.34 10 8.68 10 8 10 C8 9.34 8 8.68 8 8 C7.34 8 6.68 8 6 8 C6 7.34 6 6.68 6 6 C5.34 6 4.68 6 4 6 C4 5.34 4 4.68 4 4 C3.34 4 2.68 4 2 4 C2 3.34 2 2.68 2 2 C1.34 2 0.68 2 0 2 C0 1.34 0 0.68 0 0 Z " fill="#787878" transform="translate(303,175)"/>
<path d="M0 0 C-1.32 0.33 -2.64 0.66 -4 1 C-4 1.66 -4 2.32 -4 3 C-8.62 3 -13.24 3 -18 3 C-18 2.67 -18 2.34 -18 2 C-11.88019467 0.59545452 -6.28260706 -0.23268915 0 0 Z " fill="#5C5C5C" transform="translate(274,316)"/>
<path d="M0 0 C0.33 0 0.66 0 1 0 C1.31696526 4.6488238 0.81261611 6.39985138 -2 10 C-2.72045367 13.15118325 -2.72045367 13.15118325 -3 16 C-3.33 16 -3.66 16 -4 16 C-4.46450943 9.49686791 -3.32575612 5.5825192 0 0 Z " fill="#626262" transform="translate(202,211)"/>
<path d="M0 0 C0.66 0 1.32 0 2 0 C3.42944945 2.35438733 4.08661261 3.48032433 3.625 6.25 C3.41875 6.8275 3.2125 7.405 3 8 C3 7.01 3 6.02 3 5 C2.34 5 1.68 5 1 5 C1 8.3 1 11.6 1 15 C0.67 15 0.34 15 0 15 C0 10.05 0 5.1 0 0 Z " fill="#8B8B8B" transform="translate(400,420)"/>
<path d="M0 0 C1 3 1 3 -0.4375 6.1875 C-1.2109375 7.5796875 -1.2109375 7.5796875 -2 9 C-2.66 9 -3.32 9 -4 9 C-4.33 8.34 -4.66 7.68 -5 7 C-5.66 6.67 -6.32 6.34 -7 6 C-4.69 4.02 -2.38 2.04 0 0 Z " fill="#1E1E1E" transform="translate(342,259)"/>
<path d="M0 0 C0.66 0 1.32 0 2 0 C5.32575612 5.5825192 6.46450943 9.49686791 6 16 C4.52839263 13.20330895 3.40889368 10.443226 2.4375 7.4375 C2.18871094 6.67308594 1.93992187 5.90867187 1.68359375 5.12109375 C1.45800781 4.42113281 1.23242188 3.72117187 1 3 C0.67 2.01 0.34 1.02 0 0 Z " fill="#2E2E2E" transform="translate(515,354)"/>
<path d="M0 0 C0.66 0.33 1.32 0.66 2 1 C1.0479279 2.00596297 0.08812654 3.00461563 -0.875 4 C-1.40867187 4.556875 -1.94234375 5.11375 -2.4921875 5.6875 C-4 7 -4 7 -6 7 C-6.33 7.99 -6.66 8.98 -7 10 C-7.99 9.67 -8.98 9.34 -10 9 C-9.195625 8.401875 -8.39125 7.80375 -7.5625 7.1875 C-4.77672016 5.19052724 -4.77672016 5.19052724 -4 2 C-2.0625 0.75 -2.0625 0.75 0 0 Z " fill="#DDDDDD" transform="translate(352,197)"/>
<path d="M0 0 C5.13373162 1.39038565 10.03739743 3.08460953 15 5 C15 5.33 15 5.66 15 6 C13.02 6 11.04 6 9 6 C9 5.34 9 4.68 9 4 C7.35 4 5.7 4 4 4 C4 3.34 4 2.68 4 2 C2.68 1.67 1.36 1.34 0 1 C0 0.67 0 0.34 0 0 Z " fill="#B4B4B4" transform="translate(458,156)"/>
<path d="M0 0 C-5.71735105 2.45029331 -9.79029227 3.33266291 -16 3 C-13.63496183 0.63496183 -12.35963958 0.45078941 -9.125 -0.1875 C-8.26132813 -0.36667969 -7.39765625 -0.54585937 -6.5078125 -0.73046875 C-4.00753003 -0.9991907 -2.36944548 -0.7769577 0 0 Z " fill="#BCBCBC" transform="translate(234,153)"/>
<path d="M0 0 C2.64 0 5.28 0 8 0 C9.42944945 2.35438733 10.08661261 3.48032433 9.625 6.25 C9.41875 6.8275 9.2125 7.405 9 8 C8.443125 6.7934375 8.443125 6.7934375 7.875 5.5625 C6.1890663 2.68827104 6.1890663 2.68827104 2.8125 2.1875 C1.4203125 2.0946875 1.4203125 2.0946875 0 2 C0 1.34 0 0.68 0 0 Z " fill="#C1C1C1" transform="translate(483,366)"/>
<path d="M0 0 C0.99 0 1.98 0 3 0 C3 0.66 3 1.32 3 2 C2.34 2 1.68 2 1 2 C1 2.66 1 3.32 1 4 C-0.8125 6.125 -0.8125 6.125 -3 8 C-3.99 8 -4.98 8 -6 8 C-5.67 7.01 -5.34 6.02 -5 5 C-4.34 5 -3.68 5 -3 5 C-3 4.01 -3 3.02 -3 2 C-2.01 2 -1.02 2 0 2 C0 1.34 0 0.68 0 0 Z " fill="#262626" transform="translate(316,216)"/>
<path d="M0 0 C0 0.99 0 1.98 0 3 C-1 4 -2 5 -3 6 C-4.42827193 8.28830664 -5.70420338 10.63181997 -7 13 C-8 11 -8 11 -7.4375 8.75 C-5.51379241 5.06986375 -3.03053377 2.83289026 0 0 Z " fill="#909090" transform="translate(176,185)"/>
<path d="M0 0 C3.78786597 0.5260925 6.17152224 1.38103911 9 4 C9 4.66 9 5.32 9 6 C6.03 5.01 3.06 4.02 0 3 C0 2.01 0 1.02 0 0 Z " fill="#494949" transform="translate(272,153)"/>
<path d="M0 0 C0.33 0.66 0.66 1.32 1 2 C1.66 2 2.32 2 3 2 C3.33 5.96 3.66 9.92 4 14 C2 12 2 12 1.875 8.875 C1.91625 7.92625 1.9575 6.9775 2 6 C1.34 6 0.68 6 0 6 C0 4.02 0 2.04 0 0 Z " fill="#C3C3C3" transform="translate(222,422)"/>
<path d="M0 0 C0 0.66 0 1.32 0 2 C-0.99 2 -1.98 2 -3 2 C-3 2.66 -3 3.32 -3 4 C-5.81769349 6.17364926 -7.2190681 7.08677021 -10.8125 6.6875 C-11.534375 6.460625 -12.25625 6.23375 -13 6 C-9.81237635 3.87491756 -7.73487777 3.4979837 -4 3 C-4 2.34 -4 1.68 -4 1 C-2 0 -2 0 0 0 Z " fill="#2C2C2C" transform="translate(473,311)"/>
<path d="M0 0 C-3.32307692 4.8 -3.32307692 4.8 -6.75 5.8125 C-7.4925 5.874375 -8.235 5.93625 -9 6 C-7.01260984 0.46369883 -5.82303895 -0.15323787 0 0 Z " fill="#AFAFAF" transform="translate(290,306)"/>
<path d="M0 0 C-1.20381448 2.49361571 -2.45428722 4.68143083 -4 7 C-4.99 7 -5.98 7 -7 7 C-6.67 5.68 -6.34 4.36 -6 3 C-5.34 3 -4.68 3 -4 3 C-4 2.34 -4 1.68 -4 1 C-2 0 -2 0 0 0 Z " fill="#2B2B2B" transform="translate(365,249)"/>
<path d="M0 0 C5.13503344 0.64187918 9.9943454 1.68272247 15 3 C15 3.33 15 3.66 15 4 C9.158256 4.35050464 5.1468192 4.16727335 0 1 C0 0.67 0 0.34 0 0 Z " fill="#A3A3A3" transform="translate(226,280)"/>
<path d="M0 0 C1.98 0.99 1.98 0.99 4 2 C4 3.32 4 4.64 4 6 C4.66 6 5.32 6 6 6 C5.67 7.32 5.34 8.64 5 10 C4.16121545 8.71186658 3.32913217 7.41936744 2.5 6.125 C2.0359375 5.40570313 1.571875 4.68640625 1.09375 3.9453125 C0 2 0 2 0 0 Z " fill="#B5B5B5" transform="translate(166,267)"/>
<path d="M0 0 C4.02238643 5.30223666 5.354228 8.43465129 6 15 C3.9100302 12.9100302 3.07474358 11.29998384 1.875 8.625 C1.52179688 7.85414063 1.16859375 7.08328125 0.8046875 6.2890625 C0 4 0 4 0 0 Z " fill="#8F8F8F" transform="translate(473,212)"/>
<path d="M0 0 C3.59391114 1.33488128 6.75490696 2.96022723 10 5 C8.68 5.33 7.36 5.66 6 6 C6 5.34 6 4.68 6 4 C4.35 3.67 2.7 3.34 1 3 C0.67 2.01 0.34 1.02 0 0 Z " fill="#424242" transform="translate(448,191)"/>
<path d="M0 0 C1.80330533 3.60661066 2.46599103 6.08393425 3 10 C2.34 10 1.68 10 1 10 C0.67 10.66 0.34 11.32 0 12 C0 8.04 0 4.08 0 0 Z " fill="#121212" transform="translate(222,432)"/>
<path d="M0 0 C0.99 1.32 1.98 2.64 3 4 C3.66 2.68 4.32 1.36 5 0 C5 2.64 5 5.28 5 8 C4.01 8.33 3.02 8.66 2 9 C0.50178941 5.62902617 0 3.79557881 0 0 Z " fill="#E5E5E5" transform="translate(231,401)"/>
<path d="M0 0 C0.66 0.33 1.32 0.66 2 1 C0.37660195 2.70884005 -1.29319053 4.37446717 -3 6 C-3.66 6 -4.32 6 -5 6 C-5 6.66 -5 7.32 -5 8 C-5.99 8 -6.98 8 -8 8 C-6.88333826 4.65001479 -6.25305075 4.20659778 -3.4375 2.3125 C-2.79683594 1.87550781 -2.15617187 1.43851562 -1.49609375 0.98828125 C-1.00238281 0.66214844 -0.50867188 0.33601563 0 0 Z " fill="#DADADA" transform="translate(466,348)"/>
<path d="M0 0 C1.4835001 0.42257276 2.96176424 0.86356322 4.4375 1.3125 C5.67306641 1.67794922 5.67306641 1.67794922 6.93359375 2.05078125 C7.61550781 2.36402344 8.29742187 2.67726563 9 3 C9.33 3.99 9.66 4.98 10 6 C3.47692308 4.52307692 3.47692308 4.52307692 1.0625 1.875 C0.711875 1.25625 0.36125 0.6375 0 0 Z " fill="#ADADAD" transform="translate(392,310)"/>
<path d="M0 0 C3.4375 0.8125 3.4375 0.8125 7 2 C7.33 2.99 7.66 3.98 8 5 C8.66 5 9.32 5 10 5 C9.67 5.66 9.34 6.32 9 7 C2.25 3.375 2.25 3.375 0 0 Z " fill="#A5A5A5" transform="translate(375,299)"/>
<path d="M0 0 C4 2 8 4 12 6 C9.3333581 7.33332095 7.83319697 6.67102033 5 6 C5 5.34 5 4.68 5 4 C4.360625 3.71125 3.72125 3.4225 3.0625 3.125 C1 2 1 2 0 0 Z " fill="#A1A1A1" transform="translate(406,276)"/>
<path d="M0 0 C0.99 0.66 1.98 1.32 3 2 C2.67 3.32 2.34 4.64 2 6 C0.35 6 -1.3 6 -3 6 C-2.67 5.01 -2.34 4.02 -2 3 C-1.34 3 -0.68 3 0 3 C0 2.01 0 1.02 0 0 Z " fill="#181818" transform="translate(467,206)"/>
<path d="M0 0 C5.62917348 0.40208382 8.00386479 2.28930302 12 6 C8.55639368 6 7.25204608 5.20408468 4.3125 3.5 C3.50425781 3.0359375 2.69601562 2.571875 1.86328125 2.09375 C1.24839844 1.7328125 0.63351562 1.371875 0 1 C0 0.67 0 0.34 0 0 Z " fill="#B1B1B1" transform="translate(264,192)"/>
<path d="M0 0 C2.3125 0.1875 2.3125 0.1875 5 1 C6.8125 3.5625 6.8125 3.5625 8 6 C7.01 6 6.02 6 5 6 C4.67 5.01 4.34 4.02 4 3 C1.99983534 1.79117904 1.99983534 1.79117904 0 1 C0 0.67 0 0.34 0 0 Z " fill="#6B6B6B" transform="translate(295,168)"/>
<path d="M0 0 C0.66 0.33 1.32 0.66 2 1 C0.625 2.5 0.625 2.5 -1 4 C-1.66 4 -2.32 4 -3 4 C-3.66 5.32 -4.32 6.64 -5 8 C-5.99 8 -6.98 8 -8 8 C-6.49776416 3.79373966 -3.71449966 2.26099979 0 0 Z " fill="#A1A1A1" transform="translate(301,296)"/>
<path d="M0 0 C0.33 0.99 0.66 1.98 1 3 C-0.32 3.33 -1.64 3.66 -3 4 C-3 4.66 -3 5.32 -3 6 C-3.66 6 -4.32 6 -5 6 C-5 6.66 -5 7.32 -5 8 C-5.66 8 -6.32 8 -7 8 C-6.875 6.25 -6.875 6.25 -6 4 C-2.9375 1.75 -2.9375 1.75 0 0 Z " fill="#BABABA" transform="translate(307,241)"/>
<path d="M0 0 C0.99 0.33 1.98 0.66 3 1 C2.38125 1.2475 1.7625 1.495 1.125 1.75 C-1.13746494 2.82143729 -1.13746494 2.82143729 -2 5 C-3.24508396 7.49016793 -4.46716796 7.98686718 -7 9 C-6.67 8.01 -6.34 7.02 -6 6 C-5.34 6 -4.68 6 -4 6 C-3.34 4.68 -2.68 3.36 -2 2 C-1.34 2 -0.68 2 0 2 C0 1.34 0 0.68 0 0 Z " fill="#0D0D0D" transform="translate(317,218)"/>
<path d="M0 0 C0 0.99 0 1.98 0 3 C-2.5 5.1875 -2.5 5.1875 -5 7 C-5 5.35 -5 3.7 -5 2 C-3.35 1.34 -1.7 0.68 0 0 Z " fill="#3A3A3A" transform="translate(178,181)"/>
<path d="M0 0 C1.32 0 2.64 0 4 0 C4 0.66 4 1.32 4 2 C4.99 2 5.98 2 7 2 C7 2.66 7 3.32 7 4 C7.99 4.33 8.98 4.66 10 5 C8 6 8 6 5.5625 5.3125 C2.78856329 3.89170315 1.64827439 2.60253852 0 0 Z " fill="#888888" transform="translate(281,159)"/>
<path d="M0 0 C2.97 0 5.94 0 9 0 C9 0.66 9 1.32 9 2 C10.98 2 12.96 2 15 2 C15 2.33 15 2.66 15 3 C9.47322267 3.19392201 5.24385089 2.7479503 0 1 C0 0.67 0 0.34 0 0 Z " fill="#666666" transform="translate(257,151)"/>
<path d="M0 0 C2.74277578 3.19990508 4.6302836 6.00499382 6 10 C5.01 9.67 4.02 9.34 3 9 C2.67 7.35 2.34 5.7 2 4 C1.34 4 0.68 4 0 4 C0 2.68 0 1.36 0 0 Z " fill="#4D4D4D" transform="translate(167,271)"/>
<path d="M0 0 C0.66 0 1.32 0 2 0 C2 1.32 2 2.64 2 4 C0.35 4 -1.3 4 -3 4 C-3.33 4.99 -3.66 5.98 -4 7 C-4.66 6.67 -5.32 6.34 -6 6 C-4 4 -2 2 0 0 Z " fill="#535353" transform="translate(325,274)"/>
<path d="M0 0 C0.928125 0.165 1.85625 0.33 2.8125 0.5 C5.95621353 1.07748388 5.95621353 1.07748388 9 1 C8.67 1.99 8.34 2.98 8 4 C8.33 4.66 8.66 5.32 9 6 C5.88802644 4.50164236 2.91164984 2.86022073 0 1 C0 0.67 0 0.34 0 0 Z " fill="#313131" transform="translate(403,273)"/>
<path d="M0 0 C1.24546405 2.49092811 0.7767578 3.41080733 0 6 C-1.32 6 -2.64 6 -4 6 C-4 6.66 -4 7.32 -4 8 C-4.66 7.67 -5.32 7.34 -6 7 C-4.02 4.69 -2.04 2.38 0 0 Z " fill="#4D4D4D" transform="translate(333,266)"/>
<path d="M0 0 C0.66 0.33 1.32 0.66 2 1 C1.67 1.66 1.34 2.32 1 3 C1.66 3 2.32 3 3 3 C3 3.66 3 4.32 3 5 C1.02 5.33 -0.96 5.66 -3 6 C-2.67 4.68 -2.34 3.36 -2 2 C-1.34 2 -0.68 2 0 2 C0 1.34 0 0.68 0 0 Z " fill="#1C1C1C" transform="translate(347,263)"/>
<path d="M0 0 C0.66 0.33 1.32 0.66 2 1 C2 5 2 5 0.125 7.25 C-2 9 -2 9 -4 9 C-3.67 7.68 -3.34 6.36 -3 5 C-2.34 5 -1.68 5 -1 5 C-0.67 3.35 -0.34 1.7 0 0 Z " fill="#C8C8C8" transform="translate(315,187)"/>
<path d="M0 0 C-0.66 1.32 -1.32 2.64 -2 4 C-2.99 4 -3.98 4 -5 4 C-5 4.66 -5 5.32 -5 6 C-6.32 5.67 -7.64 5.34 -9 5 C-7.87926138 4.16094435 -6.75325453 3.32892169 -5.625 2.5 C-4.99851563 2.0359375 -4.37203125 1.571875 -3.7265625 1.09375 C-2 0 -2 0 0 0 Z " fill="#AFAEAE" transform="translate(206,160)"/>
<path d="M0 0 C0.66 0 1.32 0 2 0 C4.09230769 4.43076923 4.09230769 4.43076923 3.625 7.3125 C3.41875 7.869375 3.2125 8.42625 3 9 C2.67 7.68 2.34 6.36 2 5 C1.34 5 0.68 5 0 5 C0 3.35 0 1.7 0 0 Z " fill="#C0C0C0" transform="translate(400,415)"/>
<path d="M0 0 C1.32 0 2.64 0 4 0 C4.33 1.32 4.66 2.64 5 4 C2.525 3.01 2.525 3.01 0 2 C0 1.34 0 0.68 0 0 Z M1 4 C1.66 4 2.32 4 3 4 C3 4.66 3 5.32 3 6 C2.01 5.67 1.02 5.34 0 5 C0.33 4.67 0.66 4.34 1 4 Z " fill="#0F0F0F" transform="translate(408,341)"/>
<path d="M0 0 C0.66 0 1.32 0 2 0 C1.56179109 4.55737263 1.14958831 7.57653445 -2 11 C-2 9.02 -2 7.04 -2 5 C-1.34 5 -0.68 5 0 5 C0 3.35 0 1.7 0 0 Z " fill="#3D3D3D" transform="translate(167,193)"/>
<path d="M0 0 C2.97 0 5.94 0 9 0 C9 0.33 9 0.66 9 1 C5.04 1.99 1.08 2.98 -3 4 C-2.67 3.34 -2.34 2.68 -2 2 C-1.34 2 -0.68 2 0 2 C0 1.34 0 0.68 0 0 Z " fill="#454545" transform="translate(216,153)"/>
<path d="M0 0 C0.66 0 1.32 0 2 0 C1.67 1.98 1.34 3.96 1 6 C-1.86724686 5.42655063 -2.8614515 5.1385485 -5 3 C-4.360625 2.87625 -3.72125 2.7525 -3.0625 2.625 C-2.0415625 2.315625 -2.0415625 2.315625 -1 2 C-0.67 1.34 -0.34 0.68 0 0 Z " fill="#111111" transform="translate(364,479)"/>
<path d="M0 0 C0.86625 0.37125 0.86625 0.37125 1.75 0.75 C1.09 0.75 0.43 0.75 -0.25 0.75 C-0.58 1.74 -0.91 2.73 -1.25 3.75 C-3.8125 5.4375 -3.8125 5.4375 -6.25 6.75 C-6.25 3.75 -6.25 3.75 -4.5 1.5 C-2.25 -0.25 -2.25 -0.25 0 0 Z " fill="#272727" transform="translate(301.25,244.25)"/>
<path d="M0 0 C0.33 0 0.66 0 1 0 C1 1.98 1 3.96 1 6 C-0.98 6.99 -0.98 6.99 -3 8 C-1.125 1.125 -1.125 1.125 0 0 Z " fill="#C0C0C0" transform="translate(167,200)"/>
<path d="M0 0 C1.98 0 3.96 0 6 0 C5 2 5 2 1.9375 3.125 C0.968125 3.41375 -0.00125 3.7025 -1 4 C-0.67 2.68 -0.34 1.36 0 0 Z " fill="#C2C2C2" transform="translate(273,312)"/>
<path d="M0 0 C1.32 0.66 2.64 1.32 4 2 C1.03 4.475 1.03 4.475 -2 7 C-2 6.01 -2 5.02 -2 4 C-1.34 4 -0.68 4 0 4 C-0.33 3.01 -0.66 2.02 -1 1 C-0.67 0.67 -0.34 0.34 0 0 Z " fill="#141414" transform="translate(337,204)"/>
<path d="M0 0 C0.66 0 1.32 0 2 0 C2 0.66 2 1.32 2 2 C3.32 1.67 4.64 1.34 6 1 C6 2.65 6 4.3 6 6 C3.5625 5.25 3.5625 5.25 1 4 C0.1875 1.875 0.1875 1.875 0 0 Z " fill="#424242" transform="translate(495,180)"/>
</svg>
